<svg width="654" height="1162" viewBox="0 0 654 1162" fill="none" xmlns="http://www.w3.org/2000/svg">
<path d="M76.346 253.075C56.5116 223.293 34.6485 161.042 30.3673 122.148L27.1587 93H326.76H626.366L623.637 126.811C614.044 245.711 518.682 352.615 395.973 382.029C330.673 397.685 274.014 392.783 210.318 365.976C157.815 343.875 109.971 303.558 76.346 253.075Z" fill="#81523F"/>
<path d="M37.6425 498.694C32.3773 476.281 28.0728 452.431 28.0728 445.692V433.445H327.217H626.366L623.782 467.257C617.449 550.246 560.538 639.876 485.617 684.853C443.019 710.428 413.536 721.089 368.317 727.282C217.272 747.961 72.6991 648.028 37.6425 498.694Z" fill="#81523F"/>
<path d="M76.1873 932.075C56.3529 902.293 34.4898 840.042 30.2086 801.148L27 772H326.601H626.207L623.479 805.811C613.885 924.711 518.524 1031.62 395.814 1061.03C330.514 1076.68 273.855 1071.78 210.159 1044.98C157.656 1022.88 109.812 982.558 76.1873 932.075Z" fill="#81523F"/>
</svg>
