<svg width="100" height="100" viewBox="0 0 100 100" fill="none" xmlns="http://www.w3.org/2000/svg">
<path fill-rule="evenodd" clip-rule="evenodd" d="M96.194 30.8658C98.7067 36.9321 100 43.4339 100 50V100H0V50C0 43.4339 1.29329 36.9321 3.80602 30.8658C6.31876 24.7996 10.0017 19.2876 14.6447 14.6447C19.2876 10.0017 24.7995 6.31876 30.8658 3.80602C36.9321 1.29329 43.4339 0 50 0C56.5661 0 63.0679 1.29329 69.1342 3.80602C75.2004 6.31876 80.7124 10.0017 85.3553 14.6447C89.9983 19.2876 93.6812 24.7995 96.194 30.8658ZM37.36 78V54.192H40.288L41.584 58.608C42.416 57.168 43.536 56.016 44.944 55.152C46.384 54.256 48.096 53.808 50.08 53.808V57.984H49.36C49.136 57.984 48.912 58 48.688 58.032C45.968 58.256 44.064 59.2 42.976 60.864C41.92 62.528 41.392 64.832 41.392 67.776V78H37.36ZM63.2245 78.576C60.9525 78.576 58.9845 78.048 57.3205 76.992C55.6565 75.904 54.3765 74.432 53.4805 72.576C52.5845 70.72 52.1365 68.592 52.1365 66.192C52.1365 63.824 52.6005 61.712 53.5285 59.856C54.4885 57.968 55.8325 56.496 57.5605 55.44C59.2885 54.352 61.3205 53.808 63.6565 53.808C65.8005 53.808 67.6405 54.336 69.1765 55.392C70.7125 56.448 71.8645 57.712 72.6325 59.184L68.9365 60.528C68.4245 59.568 67.6725 58.8 66.6805 58.224C65.6885 57.648 64.5845 57.36 63.3685 57.36C62.1845 57.36 61.0645 57.68 60.0085 58.32C58.9525 58.928 58.1045 59.888 57.4645 61.2C56.8245 62.48 56.5045 64.128 56.5045 66.144C56.5045 68.128 56.8245 69.792 57.4645 71.136C58.1365 72.448 58.9845 73.424 60.0085 74.064C61.0645 74.704 62.1845 75.024 63.3685 75.024C64.6805 75.024 65.8165 74.736 66.7765 74.16C67.7685 73.552 68.5205 72.8 69.0325 71.904L72.7285 73.248C71.8325 74.784 70.5525 76.064 68.8885 77.088C67.2245 78.08 65.3365 78.576 63.2245 78.576ZM77.0485 77.664C77.6565 78.272 78.3765 78.576 79.2085 78.576C80.0725 78.576 80.8085 78.272 81.4165 77.664C82.0245 77.056 82.3285 76.336 82.3285 75.504C82.3285 74.64 82.0245 73.904 81.4165 73.296C80.8085 72.688 80.0725 72.384 79.2085 72.384C78.3765 72.384 77.6565 72.688 77.0485 73.296C76.4405 73.904 76.1365 74.64 76.1365 75.504C76.1365 76.336 76.4405 77.056 77.0485 77.664Z" fill="#133831"/>
</svg>
