<svg width="1300" height="1300" viewBox="0 0 1300 1300" fill="none" xmlns="http://www.w3.org/2000/svg">
<path fill-rule="evenodd" clip-rule="evenodd" d="M69 6.04C69 12.658 67.294 16.914 61.2 25.5C57.338 30.941 56.17 32.073 48.141 38.161C37.44 46.275 20.56 52 7.34 52H0V72.844V93.687L4.25 100.024C9.647 108.071 20.951 117.749 30.41 122.423C39.38 126.855 55.191 131 63.128 131H69V143.179C69 154.568 67.736 162 65.799 162C65.36 162 65 162.702 65 163.559C65 164.483 64.53 164.827 63.845 164.405C63.118 163.955 62.963 164.131 63.426 164.881C63.853 165.572 62.556 168.182 60.331 171.109C49.141 185.828 28.062 196 8.753 196H0V216.965V237.931L2.96 242.598C14.39 260.621 36.966 273.509 59.25 274.732L69 275.267L68.999 287.884C68.998 299.706 68.818 300.878 66.134 306.5C56.952 325.729 30.75 341 6.938 341H0V361.599V382.199L3.705 388.201C14.307 405.377 41.548 419.917 63.25 419.983L69 420V432.604C69 445.151 68.984 445.239 65.383 452.091C55.325 471.231 31.429 485 8.27 485H0V505.805V526.609L4.14 533.055C14.849 549.727 38.018 562.633 59.25 563.753L69 564.267V576.993C69 589.391 68.916 589.882 65.75 596.022C55.852 615.22 30.274 630 6.951 630H0V650.662V671.325L3.175 676.412C14.247 694.153 41.753 709 63.549 709H69V721.529C69 733.391 68.845 734.361 66.086 739.779C55.981 759.622 31.508 774 7.84 774H0V794.628V815.257L2.962 820.433C12.462 837.038 37.455 851.367 59.25 852.704L69 853.302V865.691C69 876.348 68.702 878.668 66.87 882.29C65.698 884.605 64.114 886.865 63.349 887.311C62.584 887.758 62.222 888.55 62.544 889.071C63.316 890.32 59.499 895.143 58.472 894.216C58.036 893.822 57.979 894.024 58.346 894.665C59.489 896.663 47.997 905.884 38.419 910.655C27.794 915.946 19.664 917.916 8.25 917.965L0 918V939.283V960.565L4.81 967.533C16.5 984.464 40.806 997 61.947 997H69V1010.03C69 1024.63 68.178 1027.24 60.262 1037.77C49.425 1052.2 26.747 1063 7.31 1063H0V1083.84V1104.69L3.817 1110.59C14.757 1127.52 37.728 1140.17 60.323 1141.71L69.146 1142.31L68.823 1155.95C68.502 1169.51 68.479 1169.62 65 1175.46C53.799 1194.27 31.096 1207 8.753 1207H0V1228.26V1249.53L3.421 1254.51C16.259 1273.23 39.893 1286 61.688 1286H69V1293V1300H72.5H76V1293.15V1286.29L85.75 1285.71C107.196 1284.45 129.108 1272.3 140.1 1255.58L144.341 1249.13L148.098 1254.91C153.026 1262.49 164.742 1272.84 173.5 1277.35C183.446 1282.46 196.576 1286 205.612 1286H213V1293V1300H216.5H220V1293.13V1286.27L229.75 1285.73C244.365 1284.92 258.022 1279.71 271.644 1269.73C276.735 1266 281.234 1261.01 286.026 1253.76C287.387 1251.7 288.735 1250.01 289.023 1250.01C289.31 1250 290.362 1251.52 291.361 1253.37C294.439 1259.09 305.117 1269.37 313.143 1274.34C324.402 1281.31 336.265 1285.18 348.25 1285.78L358 1286.27V1293.13V1300H361.5H365V1293V1286H371.812C384.529 1286 404.239 1279.14 413.625 1271.45C415.941 1269.55 418.127 1268 418.483 1268C418.838 1268 420.266 1266.65 421.656 1265C423.045 1263.35 424.661 1262.29 425.246 1262.65C425.872 1263.04 426.016 1262.83 425.595 1262.16C425.203 1261.52 425.434 1261 426.108 1261C426.782 1261 427.053 1260.72 426.71 1260.38C425.739 1259.41 431.092 1252.94 432.266 1253.66C432.841 1254.02 433.014 1253.83 432.651 1253.24C432.29 1252.66 432.279 1251.44 432.627 1250.53C433.107 1249.28 433.93 1250.05 436.024 1253.72C439.46 1259.73 450.742 1270.49 458.587 1275.23C468.562 1281.25 481.037 1285.15 492.25 1285.75L502 1286.27V1293.13V1300H505.5H509V1293V1286H516.388C521.257 1286 526.627 1285.17 532.138 1283.57C552.603 1277.61 562.93 1270.22 576.527 1251.78C577.671 1250.23 578.363 1249.9 578.694 1250.77C578.962 1251.47 581.216 1254.75 583.703 1258.06C595.427 1273.65 616.277 1284.54 637 1285.88L646.5 1286.5L646.796 1293.25L647.091 1300H650.615H654.138L653.89 1293.25L653.642 1286.5L663.071 1285.87C683.778 1284.48 705.18 1273.27 716.521 1257.86C718.891 1254.65 721.079 1251.45 721.384 1250.76C721.78 1249.86 722.307 1250.05 723.22 1251.4C725.415 1254.66 734.342 1265.44 735.96 1266.78C749.478 1278.03 766.009 1284.96 781.25 1285.76L791 1286.27V1293.13V1300H794.5H798V1293V1286H805.044C814.939 1286 823.837 1283.62 835.914 1277.74C844.647 1273.48 847.651 1271.36 854.522 1264.56C859.028 1260.11 863.619 1254.7 864.724 1252.55L866.732 1248.63L868 1251.07C870.897 1256.63 880.434 1267.21 886.362 1271.44C898.801 1280.31 915.241 1286 928.471 1286H935.565L935.17 1293L934.774 1300H938.387H942V1293.12V1286.23L951.75 1285.76C963.833 1285.18 974.376 1281.92 985.395 1275.35C994.453 1269.95 1005.69 1259.22 1008.73 1253.08L1010.81 1248.88L1014.37 1254.19C1016.32 1257.11 1019.68 1261.4 1021.82 1263.72C1023.97 1266.05 1025.45 1268.3 1025.11 1268.72C1024.77 1269.15 1024.89 1269.18 1025.38 1268.79C1025.86 1268.4 1029.04 1270.07 1032.44 1272.5C1043.6 1280.46 1060.14 1286 1072.74 1286H1080V1293V1300H1083.5H1087V1293.13V1286.27L1096.75 1285.73C1118.01 1284.57 1139.97 1272.4 1151.33 1255.49L1155.5 1249.29L1161 1257.03C1164.03 1261.28 1167.88 1265.72 1169.56 1266.88C1171.24 1268.04 1173.49 1269.79 1174.56 1270.75C1183.54 1278.86 1203.37 1286 1216.89 1286H1224V1293V1300H1227.5H1231V1293.13V1286.27L1240.75 1285.73C1256.01 1284.89 1270.73 1279.21 1282.5 1269.61C1288.73 1264.53 1290.98 1262.09 1296.57 1254.37L1301 1248.25L1301 1227.37L1301 1206.5L1291.48 1206.82C1283.35 1207.09 1280.77 1206.75 1273.75 1204.48C1265.6 1201.84 1258.2 1198.35 1252.58 1194.5C1247.43 1190.97 1238.6 1181.38 1235 1175.4L1231.5 1169.59V1156.04V1142.5L1240 1141.84C1262.78 1140.07 1284.71 1127.73 1296.45 1110.08L1301 1103.23L1301 1082.87L1301.01 1062.5L1293.69 1062.82C1284.7 1063.22 1271.33 1060.2 1262.59 1055.8C1256.09 1052.53 1243 1043.26 1243 1041.92C1243 1041.48 1241.67 1039.67 1240.05 1037.89C1238.43 1036.12 1235.73 1032.09 1234.05 1028.94C1231.1 1023.4 1231 1022.81 1231 1010.11V997L1238.75 996.983C1261.05 996.934 1283.81 984.427 1297.03 964.961L1301 959.11L1301 938.305L1301.01 917.5L1292.75 917.834C1281.97 918.27 1274.41 916.667 1264 911.738C1253.15 906.601 1245.36 900.599 1239.43 892.808C1231.8 882.773 1231.05 880.357 1231.02 865.897L1231 853.294L1240.39 852.734C1262.64 851.406 1285.72 838.251 1296.92 820.509L1301 814.049L1300.99 793.775L1300.99 773.5L1290.74 773.442C1271.15 773.332 1252.63 764.593 1240.58 749.775C1232.48 739.804 1231.02 735.461 1231.01 721.25L1231 709H1236.81C1252.29 709 1275.26 699.437 1286.84 688.168C1290.61 684.501 1295.34 678.904 1297.35 675.731L1301 669.961L1301 649.731L1301.01 629.5L1293.7 629.822C1280.85 630.389 1263.2 624.456 1250.91 615.434C1244.73 610.895 1236.36 600.917 1233.36 594.5C1231.29 590.083 1231.02 588.013 1231.01 576.75L1231 564H1237.84C1258.24 564 1283.76 550.73 1295.28 534.129C1301.07 525.789 1301 526.167 1301 504.636L1300.99 484.5L1290.25 484.46C1281.28 484.427 1278.26 483.985 1272 481.789C1254.78 475.751 1241.5 465.192 1234.6 452.058C1231.02 445.245 1231 445.139 1231 432.604V420H1236.94C1258.87 420 1284.78 406.015 1296.54 387.828L1301 380.938L1301 360.719L1301.01 340.5L1293.91 340.836C1285.2 341.248 1275.38 339.042 1264.5 334.23C1250.68 328.119 1239.81 318.306 1234.02 306.72C1231.14 300.953 1231 300.108 1231 287.974V275.267L1240.75 274.707C1263.72 273.386 1283.6 262.057 1297.1 242.605L1301 236.979L1301 216.239L1301 195.5L1291.6 195.816C1283.24 196.097 1281.15 195.784 1272.85 193.015C1255.89 187.36 1243.22 177.793 1235.22 164.603L1231.52 158.5L1231.19 144.903L1230.85 131.305L1239.78 130.727C1262.53 129.253 1284.53 116.91 1296.57 98.866L1301 92.231L1301 71.866L1301 51.5L1294.32 51.844C1285.85 52.278 1277.71 50.685 1267.29 46.551C1257.02 42.479 1249.36 37.254 1242.13 29.375C1234.3 20.858 1231 13.966 1231 6.15V0H1227.5H1224V6.55C1224 10.663 1223.39 14.29 1222.35 16.3C1213.39 33.743 1198.3 44.948 1176.36 50.458C1167.24 52.746 1142.69 52.546 1133.5 50.108C1113.7 44.856 1098.73 34.18 1090.43 19.404C1087.48 14.16 1087 12.377 1087 6.654V0H1083.5H1080L1079.99 5.75C1079.96 23.886 1059.38 43.347 1033.09 50.097C1022.61 52.787 999.364 52.779 988.817 50.081C969.5 45.141 954.552 34.418 945.879 19.281C943.65 15.391 942.739 12.272 942.299 7.031L941.71 0H938.321H934.931L935.16 6.25C935.359 11.671 934.944 13.335 932.031 18.794C924.019 33.816 909.825 44.254 889.5 50.069C885.973 51.078 879.05 51.5 866 51.5C847.551 51.5 847.474 51.491 838 48.137C822.448 42.632 809.425 32.604 802.071 20.469C799.257 15.826 798.613 13.653 798.215 7.448L797.737 0H794.368H791V6.105C791 10.54 790.349 13.505 788.62 16.947C781.1 31.921 770.004 41.012 750 48.592C742.708 51.355 741.96 51.435 723 51.467L703.5 51.5L693.671 48.141C676.789 42.372 662.783 31.062 656.414 18.056C653.867 12.854 653.356 10.567 653.11 3.25C653.008 0.223 652.76 0 649.5 0H646L646.158 6.25C646.291 11.517 645.799 13.523 643.029 19C638.223 28.502 627.793 38.413 617 43.735C604.211 50.042 598.82 51.22 580.366 51.743C566.291 52.142 563.163 51.932 555.866 50.094C542.698 46.779 532.409 41.333 523.718 33.077C513.8 23.656 509 14.86 509 6.104V0H505.5H502V6.36C502 11.564 501.415 13.854 498.778 18.966C492.35 31.43 478.665 42.292 462 48.157L452.5 51.5H433C413.516 51.5 413.493 51.497 404.563 48.259C399.648 46.476 393.166 43.551 390.158 41.759C382.193 37.012 372.069 26.589 368.052 19C365.057 13.342 364.641 11.691 364.84 6.25L365.069 0H361.534H358V5.84C358 14.423 353.698 22.487 343.955 32.163C335.13 40.929 324.838 46.589 311.536 49.991C300.395 52.84 277.604 52.837 266.41 49.984C255.937 47.315 245.835 42.426 238.488 36.471C231.435 30.754 231.244 30.539 225.283 21.575C221.089 15.269 220.635 13.996 220.207 7.325L219.737 0H216.368H213V6.773C213 12.802 212.588 14.244 209.25 19.906C200.239 35.189 184.842 45.759 164.655 50.519C156.306 52.488 132.593 52.456 124 50.464C102.128 45.394 86.901 34.116 77.466 16C76.174 13.518 75.706 10.683 75.856 6.25L76.069 0H72.534H69V6.04ZM214.975 24.061C214.261 25.785 210.736 30.413 207.143 34.347C194.89 47.76 174.751 57.409 156.29 58.712L148 59.297V71.62C148 82.544 148.28 84.576 150.465 89.518C157.313 105.002 177.974 119.673 197.793 123.124C208.063 124.913 237.066 123.665 244.267 121.125C260.819 115.287 276.435 102.852 282.199 90.92C284.66 85.826 284.91 84.216 285.065 72.42L285.235 59.5L277.367 58.832C254.575 56.898 231.998 44.368 220.547 27.299L216.273 20.928L214.975 24.061ZM502.246 26.386C492.317 42.985 467.737 56.932 445.385 58.651L437 59.295L437.01 71.898C437.019 83.202 437.275 85.049 439.499 89.826C443.84 99.151 455.676 110.644 466.931 116.464C478.239 122.312 482.683 123.245 501.5 123.718C515.402 124.068 521.186 123.815 526.906 122.607C545.589 118.661 563.353 105.859 571.072 90.779C573.862 85.327 574 84.449 574 72.177V59.297L565.75 58.704C553.947 57.857 545.443 55.023 529.161 46.51C523.955 43.789 513.04 33.093 509.04 26.793L505.416 21.086L502.246 26.386ZM791.246 26.386C787.011 33.466 776.01 43.614 767.452 48.336C757.28 53.948 744.399 57.999 734.502 58.697L726.113 59.289L725.807 71.395C725.516 82.867 725.645 83.808 728.273 89.389C733.708 100.929 744.892 111.308 758.833 117.749C769.368 122.616 777.107 123.965 794.5 123.965C811.937 123.965 819.348 122.659 830 117.709C837.852 114.059 850 105.707 850 103.958C850 103.397 851.606 101.529 853.568 99.806C855.531 98.083 858.482 94.007 860.127 90.749C863.217 84.628 863.317 83.706 863.06 63.899L863 59.297L854.554 58.701C832.455 57.141 809.128 43.96 798.087 26.793L794.416 21.086L791.246 26.386ZM1079.66 26.974C1073.6 36.386 1064.85 43.856 1052.92 49.812C1041.17 55.676 1034 57.783 1022.75 58.679C1018.24 59.039 1014.96 59.757 1014.91 60.398C1014.86 61.004 1014.83 66.736 1014.84 73.136C1014.85 84.219 1015.01 85.074 1018.06 91.136C1022.94 100.837 1033.23 110.437 1045.04 116.295C1058.6 123.029 1065.56 124.266 1087 123.759C1102.89 123.383 1105.19 123.097 1112 120.652C1128.81 114.614 1143.62 102.455 1149.47 89.885C1151.73 85.039 1151.98 83.239 1151.99 71.891L1152 59.282L1143.75 58.737C1126.83 57.619 1106.83 48.576 1095.23 36.8C1088.63 30.099 1086.11 26.927 1084.5 23.274C1083.56 21.131 1083.29 21.333 1079.66 26.974ZM69.335 25.758C58.862 43.857 33.318 57.802 8 59.244L3.5 59.5L3.745 72.399C4.041 88.011 5.556 92.073 14.822 102.113C24.418 112.509 39.34 120.624 53.315 123.047C61.873 124.53 92.017 123.794 97 121.979C107.022 118.33 109.479 117.166 109.262 116.167C109.124 115.533 109.719 115.339 110.676 115.706C111.873 116.165 112.103 115.975 111.51 115.015C110.958 114.122 111.077 113.929 111.875 114.423C115.739 116.811 133.05 100.765 137.983 90.223C140.83 84.139 141 83.076 141 71.388V59L135.25 58.993C126.57 58.982 113.584 55.483 103.213 50.361C92.827 45.231 79.89 34.081 75.363 26.357C73.959 23.961 72.515 22.003 72.155 22.008C71.795 22.012 70.526 23.699 69.335 25.758ZM358.459 25.75C355.668 31.669 343.461 43.114 335 47.746C322.025 54.849 308.26 58.946 297.25 58.983L292 59V71.34C292 83.146 292.135 83.95 295.108 89.9C303.106 105.906 322.688 119.623 342.454 123.065C346.625 123.792 355.389 124.047 365.815 123.745C379.861 123.338 383.528 122.898 389 120.962C404.314 115.545 416.058 107.044 423.828 95.749C428.972 88.273 430 84.13 430 70.874V59L424.25 58.993C402.287 58.966 374.123 43.252 363.349 25.014C362.37 23.356 361.267 22 360.898 22C360.53 22 359.432 23.688 358.459 25.75ZM646 27.639C635.374 44.514 607.574 59 585.816 59H581V71.667V84.334L584.617 90.917C590.68 101.95 598.306 109.285 610.221 115.547C623.433 122.489 626.724 123.24 646.204 123.754C667.235 124.309 675.039 122.988 687.5 116.766C701.518 109.766 710.168 101.496 716.463 89.073C718.773 84.515 719 82.958 719 71.682V59.297L710.71 58.712C688.416 57.139 664.125 43.569 653.5 26.752C651.85 24.14 650.275 22.021 650 22.042C649.725 22.063 647.925 24.582 646 27.639ZM935.511 26.752C924.001 45.033 897.874 58.664 873.786 58.955L870.071 59V71.672C870.071 84.213 870.107 84.411 873.552 90.922C880.571 104.19 893.849 114.857 911 121.006C916.621 123.022 919.893 123.397 935.204 123.779C949.254 124.13 954.414 123.881 960.204 122.575C979.967 118.116 997.783 104.942 1005.25 89.268C1007.77 83.963 1007.99 82.527 1008 71.391L1008 59.282L999.75 58.711C988.456 57.93 981.323 55.857 969 49.777C960.183 45.427 957.212 43.307 950.467 36.549C946.049 32.122 941.832 27.038 941.096 25.25C940.36 23.462 939.474 22.001 939.129 22.002C938.783 22.003 937.155 24.14 935.511 26.752ZM1224.62 26.25C1221.63 31.213 1214 39.427 1209 43.08C1196.4 52.282 1177.39 59 1163.94 59H1159V71.521C1159 83.492 1159.14 84.322 1162.1 90.406C1167.98 102.46 1181.18 113.336 1198 119.973C1206.27 123.238 1206.97 123.339 1224 123.75C1237.38 124.073 1243.25 123.804 1248.91 122.608C1267.69 118.638 1286.98 104.696 1293.71 90.227C1295.88 85.568 1296.18 83.469 1296.3 72.227L1296.44 59.5L1288.47 58.896C1266.54 57.233 1242.41 43.868 1231.41 27.292C1229.47 24.381 1227.73 22 1227.54 22C1227.35 22 1226.04 23.913 1224.62 26.25ZM0.425 73C0.425 84.825 0.569 89.663 0.746 83.75C0.923 77.838 0.923 68.163 0.746 62.25C0.569 56.338 0.425 61.175 0.425 73ZM864.485 97.034C862.193 102.116 853.028 111.77 845.67 116.853C834.953 124.255 819.707 129.691 806.5 130.818L798.5 131.5L798.299 144C798.102 156.281 799.189 162.619 801.271 161.333C801.863 160.967 802.01 161.174 801.614 161.816C800.398 163.784 804.016 169.145 811.641 176.671C817.444 182.399 821.031 184.935 828.27 188.428C841.882 194.994 846.96 196 866.5 196C884.893 196 890.462 195.037 902.476 189.781C914.345 184.589 924.774 175.571 931.136 165C934.373 159.62 934.457 159.189 934.973 145.248L935.5 130.996L929.5 130.983C917.587 130.958 898.689 124.689 888.214 117.288C880.539 111.866 875.081 106.315 870.053 98.818L866.243 93.135L864.485 97.034ZM139.142 101.225C126.74 118.066 106.283 129.044 84.25 130.683L76 131.297L75.86 140.399C75.643 154.566 75.979 157.115 78.834 162.941C81.137 167.642 91.589 179.437 97.336 183.821C101.123 186.71 113.32 192.094 120.607 194.093C127.504 195.985 130.311 196.165 147.405 195.812L166.5 195.417L176 191.584C191.753 185.228 204.289 174.688 210.355 162.698C212.814 157.839 213 156.551 213 144.377V131.282L204.75 130.763C196.067 130.218 182.305 126.215 173.136 121.569C163.751 116.813 151.041 104.879 145.5 95.62C144.658 94.213 143.653 95.099 139.142 101.225ZM283.5 101.269C272.065 117.637 250.557 129.181 228.677 130.695L219.854 131.305L220.177 144.904L220.5 158.503L224.914 165.501C227.342 169.351 230.492 173.762 231.914 175.304C235.961 179.693 246.057 186.591 253.267 189.893C265.404 195.452 270.393 196.22 291.485 195.779C310.071 195.39 310.697 195.307 319.23 192.103C334.68 186.302 346.001 177.3 353.721 164.678L357.5 158.5V145V131.5L350 130.906C326.112 129.015 301.63 115.247 291.914 98.241C290.586 95.917 289.275 94.037 289 94.064C288.725 94.09 286.25 97.332 283.5 101.269ZM427.662 101.863C418.763 113.845 407.621 121.54 391.291 126.984C384.537 129.236 378.864 130.403 373 130.748L364.5 131.248L364.809 144.374C365.103 156.829 365.281 157.823 368.295 163.811C371.215 169.612 378.362 177.721 385.187 182.977C389.696 186.449 401.435 191.836 409.151 193.975C415.16 195.64 419.461 196 433.336 196C453.126 196 458.075 195.014 472 188.299C483.939 182.541 494.294 172.787 498.978 162.884C501.847 156.821 501.998 155.859 501.999 143.75L502 131H496.447C474.609 131 446.546 115.732 436.324 98.29C434.941 95.931 433.74 94.001 433.655 94.001C433.57 94.002 430.873 97.54 427.662 101.863ZM573.5 100.076C562.321 116.902 540.07 129.118 517.75 130.683L509 131.296V143.819C509 155.84 509.127 156.606 512.176 162.921C516.869 172.642 527.783 182.872 539.5 188.532C553.802 195.442 558.358 196.245 580.485 195.76C596.677 195.404 600.351 195.029 605.229 193.232C621.314 187.308 632.035 179.705 639.684 168.799C645.714 160.202 646.735 156.397 646.608 142.988L646.5 131.5L639 130.89C615.091 128.946 592.105 116.241 580.848 98.75C579.167 96.138 577.726 94.012 577.646 94.028C577.566 94.043 575.7 96.764 573.5 100.076ZM719.032 98.949C714.988 105.252 704.01 115.52 696.635 119.899C687.869 125.104 672.758 129.897 662.39 130.76L653.5 131.5V144.052C653.5 156.373 653.563 156.73 656.935 163.373C661.585 172.533 672.818 183.127 683.308 188.245C696.487 194.674 703.122 196.002 721.98 195.985C741.667 195.968 747.647 194.798 760.888 188.375C768.295 184.782 771.786 182.311 777.435 176.661C785.76 168.336 791.44 158.594 788.983 156.859C787.75 155.988 787.795 155.906 789.25 156.374C790.856 156.891 791 155.867 791 143.969V131L785.25 130.993C778.359 130.985 765.93 128.105 757.012 124.449C744.599 119.362 732.725 109.525 724.67 97.656L722.199 94.014L719.032 98.949ZM1007.5 99.098C997.765 115.512 972.678 129.492 950.657 130.773L941.815 131.288L942.157 144.894L942.5 158.5L946.217 164.5C955.431 179.375 972.271 191.104 989.811 194.866C997.686 196.555 1026.13 196.294 1033.91 194.461C1050.44 190.563 1066.84 179.223 1074.93 166.083L1079.5 158.666L1079.82 144.986L1080.15 131.305L1071.32 130.697C1050.46 129.258 1029.01 118.065 1017.28 102.5C1014.79 99.2 1012.54 95.938 1012.27 95.25C1011.46 93.157 1010.62 93.829 1007.5 99.098ZM1151.15 100.22C1146.66 107.049 1139.53 113.763 1130.92 119.275C1122.66 124.556 1105.36 130.136 1095.3 130.764L1087 131.282V144.291C1087 156.499 1087.17 157.635 1089.75 162.731C1095.42 173.922 1107.85 184.88 1121.11 190.371C1132.93 195.261 1137.3 195.975 1155.52 195.988C1169.67 195.998 1173.8 195.652 1179.99 193.935C1196.37 189.396 1211.01 179.038 1219.06 166.287C1223.59 159.121 1223.74 158.397 1224.31 141.387L1224.65 131.273L1216.07 130.709C1194.24 129.272 1172.86 117.955 1160.91 101.5C1158.12 97.65 1155.7 94.374 1155.55 94.22C1155.4 94.066 1153.42 96.766 1151.15 100.22ZM792.447 168.763C782.928 186.607 758.42 201.143 735.25 202.686L726 203.302L725.919 211.901C725.874 216.63 725.719 221.85 725.575 223.5C725.035 229.669 731.983 242.396 739.97 249.867C747.884 257.269 760.516 263.916 771.518 266.468C780.353 268.517 809.035 268.552 817.634 266.524C834.989 262.431 851.304 250.525 860.146 235.5C862.231 231.957 862.557 229.886 863 217.38L863.5 203.26L854.5 202.665C840.364 201.73 829.787 198.19 817 190.114C810.164 185.797 800.715 176.181 797.115 169.877L794.394 165.113L792.447 168.763ZM69.371 170.386C57.541 188.496 35.387 201.069 12.194 202.837L3.5 203.5L3.698 216.422C3.883 228.561 4.077 229.713 6.895 235.422C12.942 247.673 27.804 259.658 43.804 265.186C50.019 267.334 52.082 267.499 72.5 267.486C93.892 267.473 94.702 267.398 101.795 264.782C117.691 258.918 132.335 246.813 137.987 234.866C140.845 228.824 140.998 227.851 140.999 215.75L141 203L135.75 202.992C112.448 202.959 87.084 189.298 74.952 170.245L72.243 165.991L69.371 170.386ZM214.101 169.802C210.924 176.03 203.095 183.927 194.536 189.537C180.896 198.478 167.51 202.946 154.25 202.983L148 203V216.062C148 228.139 148.201 229.549 150.669 234.765C154.238 242.309 166.383 254.375 175.258 259.193C189.409 266.876 191.37 267.315 213.606 267.78C231.777 268.16 234.454 267.997 241.43 266.083C259.449 261.139 274.662 249.699 281.952 235.61C284.898 229.916 285 229.278 285 216.508V203.296L276.25 202.691C253.636 201.126 231.976 188.975 220.204 171.25C218.286 168.363 216.565 166 216.379 166C216.193 166 215.168 167.711 214.101 169.802ZM358.899 169.25C357.548 172.52 342.484 189 340.847 189C340.364 189 337.614 190.554 334.735 192.453C327.145 197.459 312.859 201.934 301.734 202.79L292.5 203.5L292.524 217L292.548 230.5L296.192 236.5C298.197 239.8 301.498 244.429 303.528 246.787C310.364 254.727 325.959 263.737 337.733 266.551C346.118 268.554 375.836 268.473 384.68 266.422C401.471 262.528 420.147 248.648 426.837 235.09C429.885 228.914 430 228.219 430 215.987V203.294L420.75 202.727C402.459 201.605 384.205 193.11 371.894 179.99C368.261 176.118 364.446 171.386 363.417 169.475C362.387 167.564 361.252 166 360.894 166C360.536 166 359.638 167.463 358.899 169.25ZM501.195 172.433C489.892 189.624 464.461 202.917 442.75 202.983L437 203V216.236C437 228.601 437.176 229.819 439.675 234.759C443.128 241.584 451.749 251.078 458.88 255.91C473.578 265.87 481.837 268 505.752 268C520.55 268 524.77 267.659 530.859 265.972C539.756 263.507 546.707 260.115 554 254.682C561.053 249.428 562.856 247.627 567.337 241.358C573.716 232.433 574.465 228.897 574.111 209.401L574 203.302L564.75 202.66C542.178 201.096 520.431 188.703 508.753 170.75C507.054 168.137 505.609 166 505.544 166C505.478 166 503.521 168.895 501.195 172.433ZM647.904 169.25C647.168 171.037 642.951 176.149 638.533 180.608C625.307 193.958 608.911 201.468 590.328 202.689L581 203.302L581.01 215.901C581.018 227.092 581.286 229.059 583.4 233.5C589.551 246.423 601.585 256.89 618.5 264.03L626.5 267.407L646.151 267.806C669.252 268.275 676.11 267.146 687.964 260.921C698.401 255.44 704.189 250.975 709.575 244.252C717.779 234.012 718.979 230.397 718.99 215.898L719 203.296L710.097 202.719C690.514 201.451 672.311 192.842 659.52 178.801C656.363 175.336 653.071 171.037 652.205 169.25C651.338 167.463 650.318 166 649.936 166C649.555 166 648.64 167.463 647.904 169.25ZM937.293 168.25C936.011 171.057 927.083 182.197 925.182 183.363C924.408 183.837 923.008 184.992 922.072 185.928C921.135 186.865 917.698 189.239 914.434 191.205C901.867 198.772 892.385 201.872 879.25 202.706L870 203.294V215.987C870 228.063 870.145 228.97 872.971 234.627C878.393 245.477 888.233 254.669 901.681 261.448C912.071 266.686 919.539 268 938.902 268C952.218 268 957.241 267.601 963.244 266.065C981.078 261.504 995.677 250.611 1004.84 235.029C1007.31 230.824 1007.53 229.515 1007.85 216.75L1008.19 203L1001.85 202.983C983.798 202.933 963.853 194.302 949.957 180.528C946.268 176.872 942.45 172.107 941.473 169.94C939.429 165.408 938.722 165.122 937.293 168.25ZM1080.62 170.25C1069.72 188.323 1042.79 203 1020.54 203C1015.96 203 1014.99 203.304 1014.92 204.75C1014.87 205.713 1014.89 211.675 1014.95 218C1015.06 228.684 1015.28 229.926 1018.09 235.5C1025.08 249.378 1040.44 261.067 1058.14 265.972C1067.49 268.563 1096.05 268.886 1106.28 266.516C1123.84 262.442 1141.92 249.248 1149.04 235.307C1151.23 231.03 1151.54 229.001 1151.82 216.901L1152.15 203.303L1142.82 202.746C1124.68 201.663 1106.24 193.055 1093.81 179.862C1090.13 175.958 1086.39 171.242 1085.51 169.382C1084.63 167.522 1083.74 166 1083.55 166C1083.35 166 1082.04 167.912 1080.62 170.25ZM1225.34 169.834C1222.51 174.752 1210.42 187.731 1207.94 188.519C1206.86 188.863 1206.27 189.631 1206.64 190.227C1207.02 190.847 1206.85 191.023 1206.22 190.638C1205.63 190.269 1203.5 191.08 1201.49 192.44C1192.99 198.208 1176.17 202.975 1164.25 202.992L1159 203L1159 215.75C1159 227.851 1159.15 228.824 1162.01 234.866C1167.67 246.825 1183.19 259.545 1199 265.182C1205.05 267.339 1207.03 267.5 1227.5 267.5C1248.12 267.5 1249.94 267.35 1256.5 265.096C1260.35 263.773 1264.62 262.008 1266 261.172C1280.52 252.346 1288.57 244.696 1293.01 235.523C1295.73 229.918 1295.94 228.597 1296.14 216.5L1296.34 203.5L1288.39 202.902C1284.01 202.573 1277.97 201.729 1274.97 201.027C1264.42 198.564 1248.87 190.267 1240.9 182.85C1236.48 178.742 1230 170.663 1230 169.269C1230 168.706 1229.43 167.771 1228.73 167.192C1227.78 166.401 1226.94 167.056 1225.34 169.834ZM0.426 217.5C0.427 229.6 0.571 234.413 0.747 228.195C0.923 221.977 0.922 212.077 0.746 206.195C0.569 200.313 0.425 205.4 0.426 217.5ZM144 238.62C144 239.733 136.932 249.328 133.165 253.33C122.251 264.922 98.834 275 82.812 275H76V288.654V302.308L79.667 308.904C87.191 322.437 101.854 333.069 120.411 338.446C128.085 340.67 131.126 341 143.952 341C161.833 341 170.203 339.19 183.775 332.39C194.913 326.809 204.92 317.386 209.838 307.849C212.924 301.867 213 301.396 213 288.36V275H205.612C185.31 275 161.131 262.079 148.935 244.713C146.221 240.849 144 238.107 144 238.62ZM429.135 244.41C422.231 254.835 412.496 262.719 399.73 268.223C388.673 272.989 380.494 274.966 371.75 274.985L365 275V288.417V301.834L368.576 308.667C375.142 321.213 389.613 332.264 407.205 338.167C412.265 339.865 416.754 340.372 430.09 340.751C449.596 341.306 457 339.914 471.662 332.933C478.872 329.5 481.989 327.23 488.585 320.612C493.937 315.243 497.572 310.577 499.335 306.812C501.795 301.561 502 300.12 502 288.062V275H494.894C473.212 275 447.851 261.026 436.205 242.662L433.313 238.102L429.135 244.41ZM575.805 241.282C573.481 246.156 563.671 256.43 556.57 261.427C545.405 269.284 528.364 275 516.106 275H509V288.104V301.208L512.641 308.137C519.418 321.032 534.414 332.574 551.5 338.044C557.212 339.872 561.536 340.369 575 340.743C592.565 341.232 598.03 340.454 610 335.762C619.719 331.952 631.389 324.438 630.306 322.686C629.968 322.139 630.158 321.98 630.73 322.333C632.312 323.311 639.485 314.945 643.16 307.834C646.33 301.701 646.439 301.084 646.61 288.379L646.787 275.257L637.144 274.75C613.837 273.526 592.541 260.764 578.63 239.685C577.535 238.026 577.293 238.162 575.805 241.282ZM864.477 241.718C861.656 247.023 849.47 259.172 843 263.131C831.345 270.261 816.281 275 805.27 275H798V288.062C798 300.103 798.208 301.569 800.655 306.812C804.782 315.655 817.288 327.501 828.091 332.801C842.311 339.777 850.322 341.305 869.91 340.774C883.873 340.396 887.529 339.963 893 338.038C910.476 331.889 924.096 321.679 931.066 309.5C934.439 303.606 934.509 303.249 935 289.248L935.5 274.996L928.438 274.998C906.689 275.004 880.23 260.337 869.363 242.25C867.959 239.912 866.73 238 866.632 238C866.535 238 865.565 239.673 864.477 241.718ZM1151.6 244.071C1140.85 260.756 1117.43 273.752 1096.25 274.787L1087 275.239L1087.01 288.369C1087.02 300.023 1087.28 302.062 1089.35 306.5C1096.44 321.662 1117.26 336.256 1137.2 340.039C1145.44 341.6 1168.15 341.215 1176.3 339.377C1195.48 335.052 1212.11 323.422 1220.57 308.404L1224 302.308V288.654V275H1216.73C1195.03 275 1169.06 260.438 1158.32 242.25C1156.94 239.912 1155.74 238.004 1155.66 238.009C1155.57 238.014 1153.74 240.742 1151.6 244.071ZM285.087 243.864C273.914 261.275 248.481 275 227.388 275H220V288.104C220 301.177 220.008 301.223 223.547 307.958C226.997 314.522 235.42 323.959 241.5 328.07C247.375 332.043 259.147 337.133 267.121 339.15C274.14 340.925 277.432 341.139 291.859 340.755C309.193 340.294 313.562 339.4 326 333.766C337.482 328.566 348.754 318.348 354.497 307.934C357.348 302.765 357.511 301.83 357.843 288.75L358.192 275H350.806C339.15 275 322.356 269.662 311.644 262.552C304.891 258.069 295.496 248.703 292.324 243.29C290.941 240.931 289.45 239 289.009 239C288.569 239 286.804 241.189 285.087 243.864ZM719 243.239C715.753 248.674 705.89 258.361 699.318 262.57C687.794 269.949 675.579 274.095 663 274.895L653.5 275.5L653.586 289C653.671 302.357 653.706 302.562 656.978 308.373C661.147 315.78 671.092 325.786 678.738 330.267C685.452 334.202 695.481 338.185 696.389 337.278C696.725 336.942 697 337.145 697 337.731C697 341.27 731.563 342.213 744.237 339.02C763.513 334.162 779.83 322.464 787.386 308.085L791 301.208V288.104V275H784.188C763.45 275 736.775 260.791 726.005 244.007C724.237 241.253 722.501 239.012 722.146 239.027C721.791 239.042 720.375 240.937 719 243.239ZM1007.98 243.042C1004.22 250.412 991.676 261.503 981.5 266.455C970.059 272.024 962.398 274.15 951.657 274.738L941.814 275.276L942.16 288.888C942.488 301.802 942.659 302.781 945.503 307.988C950.12 316.442 962.158 327.858 971.055 332.217C986.202 339.64 990.349 340.5 1011 340.5C1031.81 340.5 1035.13 339.844 1049.87 332.819C1060.42 327.79 1071.87 316.854 1076.78 307.11C1079.91 300.9 1080 300.355 1080 287.86V275H1072.61C1050.74 275 1022.54 259.001 1013.12 241.25C1011.43 238.052 1010.33 238.435 1007.98 243.042ZM214.221 314.25C209.42 323.217 196.706 334.105 183.58 340.491C176.214 344.074 163.595 346.967 155.25 346.985L148 347L148.01 360.25C148.019 372.126 148.266 374.018 150.4 378.5C157.677 393.789 173.909 405.87 194.097 411.025C205.879 414.033 228.4 413.835 240.761 410.615C260.071 405.584 276.927 392.336 283.697 376.868C284.619 374.763 285.479 357.298 285.081 348.75C285.012 347.256 283.965 347 277.917 347C255.935 347 230.029 332.525 219.304 314.25C217.932 311.913 216.739 310 216.653 310C216.567 310 215.473 311.913 214.221 314.25ZM503.335 313.75C502.367 315.813 497.959 321.1 493.538 325.5C480.224 338.751 464.768 345.768 446.75 346.741L437 347.267V360.532C437 373.277 437.115 374.016 439.94 379.387C447.885 394.49 463.625 406.201 482.41 410.985C494.38 414.034 516.391 413.85 529.226 410.594C540.381 407.765 545.072 405.544 554.375 398.691C562.129 392.978 567.658 386.492 571.366 378.759C574.075 373.108 574.256 371.653 574.101 356.75L574 347L566.75 346.985C558.659 346.968 546.078 344.139 539.096 340.767C526.067 334.474 512.57 322.786 507.898 313.75C506.832 311.688 505.765 310 505.527 310C505.289 310 504.302 311.688 503.335 313.75ZM791.633 314.548C779.755 333.324 755.08 347 733.083 347H726L725.894 354.25C725.605 374.006 725.966 375.642 732.845 385.772C740.277 396.716 753.34 405.834 767.768 410.15C776.342 412.715 802.426 413.822 812.666 412.056C828.451 409.333 845.246 399.676 854.351 388.087C862.103 378.219 862.953 375.492 862.978 360.395L863 347.291L853.248 346.753C841.57 346.11 831.023 342.871 820.605 336.727C812.567 331.988 800.468 320.577 796.845 314.318L794.424 310.136L791.633 314.548ZM1080.63 314.551C1068.78 333.284 1044.23 346.938 1022.31 346.985L1015.11 347L1014.81 359.75L1014.5 372.5L1017.97 379.5C1024.44 392.574 1039.03 404.294 1055.5 409.662C1062.34 411.892 1065.8 412.337 1079.37 412.742C1095.79 413.231 1101.71 412.568 1113.53 408.917C1126.7 404.849 1143.13 391.275 1149.02 379.59C1151.88 373.914 1152 373.153 1152 360.34V347L1144.75 346.985C1136.62 346.967 1124.23 344.169 1116.38 340.574C1104.82 335.28 1090.8 323.26 1085.77 314.321L1083.42 310.142L1080.63 314.551ZM69.34 314.799C59.378 332.251 32.738 347 11.178 347H4.144L3.479 352.319C2.29 361.839 3.518 373.288 6.376 379.33C13.041 393.419 30.254 406.176 48.94 410.877C60.679 413.83 82.805 413.872 94.932 410.965C113.926 406.411 130.147 394.555 137.606 379.775C140.947 373.156 141 372.845 141 360.025V347H133.112C121.58 347 102.131 340.859 96.306 335.378C95.649 334.76 93.174 333.012 90.806 331.494C86.485 328.725 76.616 317.978 74.218 313.431C72.503 310.178 71.878 310.353 69.34 314.799ZM358.103 314.798C355.421 320.056 346.669 328.991 339.5 333.792C326.442 342.536 312.637 347 298.654 347H291.808L292.18 360.75C292.506 372.804 292.841 375.055 294.9 379C300.585 389.897 310.34 398.947 323.529 405.561C335.013 411.32 343.212 412.963 360.56 412.983C382.761 413.008 396.137 409.149 410 398.72C418.599 392.251 422.845 387.256 427.369 378.283C429.809 373.446 430 372.119 430 360.033V347H422.112C409.51 347 394.736 341.987 382.078 333.415C376.603 329.708 367.103 319.995 364.311 315.25C362.935 312.913 361.412 311 360.925 311C360.439 311 359.169 312.709 358.103 314.798ZM646.415 315.735C642.035 323.21 635.32 329.685 626.06 335.364C612.964 343.395 601.36 347 588.606 347H581V360.04C581 374.122 581.553 376.121 588.041 385.5C596.55 397.802 610.195 406.616 627.459 410.962C635.54 412.997 638.09 413.169 653.459 412.72C667.057 412.323 671.752 411.805 676.694 410.156C695.016 404.045 709.48 392.373 716.247 378.238C718.798 372.908 718.994 371.593 718.997 359.75L719 347H711.112C697.671 347 680.277 340.73 668.5 331.639C666.3 329.941 664.169 328.09 663.765 327.526C663.361 326.962 663.024 326.904 663.015 327.399C662.997 328.469 658.204 322.39 653.83 315.75C652.109 313.137 650.361 311 649.946 311C649.53 311 647.941 313.131 646.415 315.735ZM936.072 314.602C925.359 332.76 899.733 347 877.77 347H870L870.01 359.75C870.019 371.237 870.267 373.032 872.517 377.866C879.942 393.816 895.676 405.776 915.94 410.876C927.658 413.825 949.804 413.872 961.892 410.974C980.517 406.509 998.112 393.3 1005.15 378.5C1007.82 372.877 1008 371.699 1008 359.75L1008 347H1001.07C978.134 347 951.22 332.251 941.652 314.44C940.636 312.548 939.442 311 939.001 311C938.559 311 937.241 312.621 936.072 314.602ZM1225.62 313.75C1223.05 318.681 1213.87 328.405 1207.62 332.81C1194.9 341.768 1179.75 347 1166.52 347H1159V360.029C1159 372.642 1159.1 373.255 1162.14 379.279C1169.13 393.139 1183.44 404.459 1201.21 410.185C1209.43 412.834 1235.99 413.889 1246.16 411.971C1249.88 411.268 1252.76 410.424 1252.56 410.096C1252.36 409.768 1253.54 409.45 1255.19 409.389C1256.83 409.328 1262.04 407.32 1266.76 404.926C1277.69 399.386 1289.3 388.38 1293.6 379.5C1296.34 373.822 1296.5 372.802 1296.5 360.5V347.5L1287.5 346.915C1282.55 346.593 1276.25 345.745 1273.5 345.029C1267.01 343.339 1254.54 337.647 1250.39 334.483C1248.6 333.117 1246.69 332 1246.15 332C1244.64 332 1232.02 317.935 1230.22 314.25C1228.28 310.285 1227.47 310.197 1225.62 313.75ZM0.425 362C0.425 373.825 0.569 378.663 0.746 372.75C0.923 366.837 0.923 357.163 0.746 351.25C0.569 345.337 0.425 350.175 0.425 362ZM866 382.661C866 384.621 858.851 394.352 854.097 398.862C841.479 410.835 819.768 419.944 803.75 419.985L798 420L798.015 432.25C798.03 444.195 799.194 450.594 801.832 453.232C802.474 453.874 803 454.898 803 455.507C803 458.148 817.847 471.775 825.042 475.738C833.67 480.49 844.425 484.435 846.54 483.623C847.343 483.315 848 483.499 848 484.031C848 484.62 854.974 485 865.77 485C885.998 485 892.881 483.661 905.721 477.226C915.215 472.468 926.806 461.643 931.495 453.154L935 446.808V433.545V420.282L926.75 419.728C904.159 418.212 881.484 405.24 869.579 387.023C867.611 384.01 866 382.047 866 382.661ZM1152.16 387.537C1148.64 393.424 1140.85 401.535 1134.5 405.932C1124.15 413.099 1107.66 418.895 1095.25 419.728L1087 420.282V433.251C1087 445.934 1087.07 446.356 1090.23 452.36C1095.26 461.92 1105.88 471.762 1117.17 477.339C1130.19 483.768 1136.26 484.968 1155.86 484.985C1174.59 485.002 1179.89 483.991 1192.89 477.918C1205.39 472.079 1214.86 463.211 1221.81 450.844C1223.88 447.152 1224.25 443.285 1224.08 427.391L1224 420.282L1215.75 419.737C1193.35 418.257 1170.77 405.392 1158.83 387.308L1155.4 382.117L1152.16 387.537ZM140.443 388.52C129.325 405.27 106.173 418.13 84.307 419.701L76.113 420.289L75.807 432.273C75.507 444 75.57 444.408 78.768 451.301C85.164 465.089 101.88 477.911 120.007 482.935C126.167 484.642 130.327 484.997 143.98 484.985C163.847 484.967 169.821 483.779 183 477.225C194.745 471.384 205.093 461.776 209.871 452.279C212.893 446.27 213 445.615 213 433.169V420.282L204.75 419.737C182.585 418.273 158.922 405.02 147.954 387.929C146.215 385.218 144.637 383 144.449 383C144.261 383 142.458 385.484 140.443 388.52ZM285.687 387.25C275.47 404.598 251.951 417.988 228.75 419.667L220 420.299V432.755C220 444.116 220.224 445.656 222.554 450.294C228.651 462.433 236.343 470.006 249.353 476.678C263.791 484.081 265.915 484.5 289 484.5C311.598 484.5 313.731 484.103 327.32 477.366C340.029 471.065 349.742 461.677 355.114 450.5C357.809 444.893 357.998 443.697 357.999 432.25L358 420L351.75 419.997C339.976 419.993 318.971 412.735 309.13 405.271C302.696 400.391 294.281 391.472 292.126 387.248C290.934 384.911 289.561 383 289.075 383C288.588 383 287.064 384.913 285.687 387.25ZM429.165 388.75C424.805 395.163 417.791 402.051 411 406.591C400.087 413.886 381.775 420 370.84 420H365V433.296C365 446.508 365.022 446.634 368.406 452.967C373.843 463.145 382.678 471.292 394.5 477.034C409.668 484.4 414.025 485.216 435.936 484.79C452.308 484.472 455.267 484.154 461 482.095C472.475 477.973 482.024 472.072 489.341 464.581C495.387 458.389 502.265 448 500.317 448C499.923 448 500.14 447.46 500.8 446.8C501.608 445.992 502 441.422 502 432.8V420L495.75 419.983C484.598 419.952 465.232 413.47 455.391 406.473C448.514 401.584 439.218 392.222 436.302 387.25C434.931 384.913 433.644 383 433.442 383C433.24 383 431.315 385.587 429.165 388.75ZM574.729 387.184C568.756 397.339 557.313 406.83 543.578 413.021C535.342 416.733 521.875 420 514.81 420H509V432.649C509 444.927 509.095 445.487 512.25 451.761C515.484 458.191 525.036 469.124 530.217 472.324C537.206 476.642 542.823 479.41 549.376 481.768C555.822 484.088 558.273 484.372 575.136 484.758C591.786 485.138 594.588 484.96 601.422 483.085C619.152 478.221 636.146 465.85 643.069 452.767C646.243 446.768 646.402 445.939 646.787 433.404L647.189 420.308L638.304 419.733C617.018 418.354 595.745 407.106 583.334 390.669C580.773 387.276 578.359 384.133 577.972 383.684C577.585 383.235 576.125 384.81 574.729 387.184ZM719.53 387.134C706.939 406.16 683.325 418.871 658 420.254L653.5 420.5V433.094C653.5 445.358 653.587 445.862 656.811 452.275C661.673 461.948 672.489 471.883 684.349 477.57C697.916 484.075 702.659 485 722.463 485C742.239 485 748.182 483.76 761.892 476.776C772.775 471.231 782.608 461.714 787.509 451.982C790.942 445.165 791 444.842 791 432.525V420L785.25 419.993C773.853 419.979 755.012 413.817 744.383 406.626C738.648 402.746 728.188 392.116 725.317 387.25C723.938 384.913 722.688 383 722.538 383C722.388 383 721.035 384.86 719.53 387.134ZM1007.83 387.626C1004.39 394.506 992.39 405.08 981.815 410.542C971.617 415.809 956.575 420 947.872 420H942V432.366C942 444.508 942.063 444.855 945.489 451.616C951.532 463.54 963.375 473.764 978.658 480.25C988.544 484.445 994.906 485.244 1014.6 484.761C1030.85 484.362 1033.19 484.075 1039.96 481.648C1056.17 475.84 1069.65 464.905 1076.38 452.093C1079.98 445.251 1080 445.129 1080 432.752V420.296L1071.25 419.71C1049.78 418.271 1026.39 405.533 1015.89 389.563C1013.52 385.953 1011.25 383 1010.86 383C1010.46 383 1009.1 385.082 1007.83 387.626ZM70.935 457.147C70.25 458.441 68.072 461.525 66.095 464C53.341 479.967 33.318 490.211 11.584 491.889L3.668 492.5L3.908 505.999C4.139 518.99 4.267 519.72 7.281 525.376C13.507 537.057 27.476 548.116 43.193 553.805C50.231 556.353 51.291 556.451 72 556.475C92.824 556.499 93.739 556.415 101.096 553.809C117.363 548.045 131.291 536.753 137.75 524.091C140.918 517.88 141 517.394 141 504.86V492H135.447C129.543 492 117.884 489.768 111.863 487.486C109.863 486.727 107.951 486.383 107.613 486.72C107.276 487.057 107 486.852 107 486.264C107 485.677 105.629 484.718 103.953 484.133C99.973 482.746 86.364 473.095 82.381 468.836C80.666 467.001 77.669 463.091 75.721 460.147C72.226 454.863 72.164 454.825 70.935 457.147ZM214.184 458.631C205.601 475.416 180.153 490.063 156.75 491.688L148 492.296L148.001 504.898C148.002 516.76 148.174 517.864 150.935 523.701C157.399 537.365 172.795 549.341 190.484 554.467C198.382 556.756 200.941 557 217.06 557C233.516 557 235.539 556.797 243.198 554.383C253.584 551.11 259.132 548.323 266.059 542.901C273.162 537.34 275.572 534.73 280.175 527.608C285.103 519.984 285.561 517.815 285.192 503.894L284.884 492.289L276.192 491.672C262.818 490.722 250.011 486.231 238.498 478.452C231.109 473.46 228.505 470.899 221.769 462C219.479 458.975 217.281 456.109 216.884 455.631C216.487 455.153 215.272 456.503 214.184 458.631ZM358.775 458.346C354.729 466.83 339.314 479.883 326.848 485.383C318.876 488.9 305.459 492 298.214 492H291.808L292.208 505.75C292.562 517.932 292.878 519.983 294.979 523.732C301.869 536.022 313.834 546.302 327.922 552.035C338.786 556.456 344.617 557.211 364.517 556.772C379.659 556.438 383.497 556.033 388.813 554.209C403.648 549.119 417.008 539.61 423.358 529.623C429.115 520.568 430 517.153 430 503.98V492L423.75 491.98C410.668 491.938 391.854 485.126 379.391 475.92C373.94 471.893 364.65 461.52 362.74 457.328C361.322 454.216 360.664 454.385 358.775 458.346ZM502.656 459.324C496.606 469.647 482.787 480.96 470.133 485.948C461.725 489.262 449.51 492 443.133 492H437.1L436.8 497.75C436.635 500.913 436.725 507.349 437 512.053C437.468 520.058 437.775 521.028 441.795 527.192C449.969 539.726 460.401 547.768 475.606 553.26C484.261 556.385 485.014 556.481 503.64 556.811C520.899 557.117 523.504 556.938 530.14 554.996C545.924 550.375 559.25 541.589 567.032 530.672C573.768 521.222 574 520.39 574 505.698V492.297L565.75 491.68C542.443 489.936 520.222 477.468 508.842 459.75C507.164 457.137 505.656 455 505.491 455C505.325 455 504.05 456.946 502.656 459.324ZM646.159 460.461C640.753 469.233 630.92 477.75 619.623 483.447C610.06 488.269 600.31 490.96 589.75 491.691L581 492.296V504.526C581 518.466 581.743 521.029 588.573 530.633C596.402 541.643 611.445 551.359 627.002 555.452C632.349 556.859 636.877 557.094 652.502 556.777C670.211 556.418 672.032 556.203 679.342 553.608C692.253 549.024 702.914 541.685 709.998 532.503C717.99 522.143 718.991 519.073 718.996 504.898L719 492.296L710.25 491.701C694.462 490.627 679.678 484.797 666.781 474.559C661.074 470.029 653.656 461.511 651.708 457.25C651.142 456.012 650.414 455.009 650.089 455.02C649.765 455.032 647.997 457.48 646.159 460.461ZM791.596 459.035C790.127 461.254 789.201 463.515 789.537 464.06C789.873 464.604 789.699 464.926 789.148 464.775C788.598 464.624 786.427 466.32 784.324 468.544C779.108 474.061 770.746 480.16 763.296 483.883C755.261 487.897 739.387 492 731.891 492H726L725.894 502.75C725.752 517.159 725.876 518.416 727.822 522.22C735.824 537.863 750.078 549.133 768.678 554.523C776.304 556.733 779.083 557 794.5 557C810.072 557 812.648 556.747 820.616 554.438C830.49 551.577 839.269 547.244 838.316 545.703C837.972 545.146 838.136 544.966 838.68 545.302C840.138 546.203 849.64 538.713 854.023 533.209C856.115 530.581 858.991 526.242 860.414 523.566C862.819 519.042 863 517.779 863 505.5V492.297L854.75 491.688C850.212 491.353 843.951 490.402 840.837 489.574C837.722 488.747 833.911 487.842 832.368 487.562C830.826 487.282 828.33 486.141 826.822 485.027C825.315 483.912 823.637 483 823.093 483C821.45 483 809.16 473.292 804.405 468.238C801.953 465.632 798.791 461.587 797.379 459.25C795.966 456.913 794.688 455 794.538 455C794.388 455 793.064 456.816 791.596 459.035ZM935.529 459.787C928.974 470.188 917.542 479.702 904.886 485.291C897.349 488.619 882.565 492 875.551 492H869.849L870.174 505.782L870.5 519.563L874.894 526.83C882.794 539.894 896.791 549.889 914.236 554.922C921.298 556.959 923.649 557.122 941.236 556.792C959.395 556.452 960.959 556.268 968.5 553.582C972.9 552.015 980.172 548.317 984.66 545.363C993.175 539.759 998.415 534.276 1004.12 525C1007.46 519.564 1007.5 519.343 1007.84 505.894L1008.18 492.288L999.343 491.727C979.888 490.494 961.509 481.878 948.608 467.943C945.425 464.505 942.103 460.187 941.225 458.346C940.348 456.506 939.375 455.016 939.065 455.037C938.754 455.057 937.163 457.194 935.529 459.787ZM1081.92 457.157C1076.83 466.655 1064.59 477.693 1052.3 483.867C1044.29 487.889 1028.41 492 1020.89 492H1015L1014.84 503.25C1014.63 518.47 1014.67 518.665 1018.49 525.5C1025.92 538.765 1038.82 548.606 1055.98 554.103C1065.44 557.134 1065.54 557.143 1084.99 556.786C1103.29 556.451 1105 556.255 1112.5 553.631C1116.9 552.093 1122.41 549.729 1124.75 548.378C1135.81 541.977 1147.5 529.501 1150.56 520.841C1151.52 518.119 1152 512.604 1152 504.374V492L1145.75 491.997C1139.62 491.995 1124.76 488.6 1117.38 485.512C1106.55 480.989 1090.65 467.545 1085.83 458.843C1083.49 454.618 1083.32 454.543 1081.92 457.157ZM1227 456C1227 456.55 1227 457.225 1227 457.499C1227 457.773 1225.42 459.666 1223.5 461.704C1221.58 463.742 1220.12 465.963 1220.25 466.639C1220.39 467.316 1220.05 467.917 1219.5 467.976C1218.95 468.034 1216.92 469.561 1215 471.369C1209.66 476.381 1201.18 482.047 1194.51 485.052C1186.37 488.718 1172.46 492 1165.07 492H1159V504.765C1159 517.057 1159.12 517.77 1162.16 524.003C1168.11 536.21 1183.66 548.701 1199.26 553.803C1207.12 556.377 1208.44 556.5 1228 556.5C1246.76 556.5 1249.09 556.303 1255.5 554.181C1263.48 551.537 1268.75 548.941 1274.5 544.826C1281.61 539.74 1289.72 531.002 1292.93 524.982C1295.96 519.29 1296.06 518.698 1296.17 505.805L1296.27 492.5L1288.39 491.889C1280.63 491.287 1268.51 488.365 1261.32 485.36C1255.81 483.06 1243.36 474.372 1238.81 469.663C1236.61 467.373 1233.26 463.137 1231.37 460.25C1227.95 455.024 1227 454.096 1227 456ZM0.425 506C0.425 517.825 0.569 522.663 0.746 516.75C0.923 510.837 0.923 501.163 0.746 495.25C0.569 489.337 0.425 494.175 0.425 506ZM140.7 532.75C136.339 539.744 133.511 542.805 126.715 547.888C114.031 557.375 95.99 564 82.84 564H76V577.54C76 592.626 76.583 594.572 84.071 604.465C91.722 614.576 105.105 623.011 120.637 627.512C132.442 630.932 154.27 631.099 167.06 627.866C176.431 625.498 190.149 618.832 195.72 613.941C201.369 608.981 207.933 600.963 210.585 595.783C212.783 591.49 213 589.865 213 577.67V564.273L203.75 563.734C182.049 562.472 157.165 548.519 147.979 532.464C146.26 529.459 144.725 527 144.569 527C144.412 527 142.671 529.587 140.7 532.75ZM288 528.043C288 529.672 280.671 539.066 275.855 543.608C263.152 555.591 243.165 564 227.388 564H220V577.029C220 589.415 220.143 590.339 222.895 595.779C226.386 602.679 232.015 609.232 239.181 614.736C244.998 619.205 254.685 624.769 257.634 625.336C258.66 625.533 260.678 626.179 262.117 626.772C270.486 630.217 297.175 631.191 309 628.481C321.108 625.707 334.066 619.271 342.563 611.81C347.077 607.847 354.325 597.73 356.442 592.438C357.694 589.307 358.002 585.638 357.783 576.438L357.5 564.5L348.5 563.818C343.55 563.443 337.925 562.722 336 562.215C328.817 560.326 318.293 555.597 311.881 551.377C304.304 546.39 293.036 534.915 291.081 530.196C289.811 527.13 288 525.864 288 528.043ZM430.81 531.252C418.994 549.913 393.707 563.927 371.75 563.983L365 564L364.835 571.25C364.499 586.003 365.049 591.163 367.461 595.911C375.222 611.185 391.42 622.915 411.901 628.094C419.109 629.917 422.405 630.147 436.366 629.805C451.268 629.44 453.164 629.175 461.194 626.343C472.984 622.185 483.513 615.404 491.39 606.896C500.413 597.151 502 592.615 502 576.582V564.239L492.75 563.784C481.779 563.244 471.213 559.983 460.063 553.694C451.438 548.83 439.236 537.393 436.117 531.25C434.93 528.913 433.856 527.001 433.73 527.002C433.603 527.003 432.29 528.915 430.81 531.252ZM575.108 531.202C565.028 548.848 537.647 564 515.84 564H509V576.868C509 589.619 509.032 589.798 512.52 596.609C519.172 609.599 533.851 621.178 550.799 626.804C557.932 629.172 559.9 629.365 577.5 629.43C596.339 629.499 596.577 629.473 605.549 626.336C610.526 624.596 617.368 621.549 620.754 619.565C629.876 614.219 639.451 604.309 643.344 596.185C646.308 590.001 646.615 588.459 646.842 578.633C647.185 563.785 647.296 564 639.247 564C630.101 564 621.274 561.642 609.357 556.014C601.084 552.108 597.725 549.803 591.146 543.517C586.709 539.278 581.917 533.827 580.497 531.405C579.077 528.982 577.822 527.003 577.708 527.008C577.594 527.012 576.424 528.899 575.108 531.202ZM719.087 532.015C707.74 549.527 685.105 562.379 663 563.863L653.5 564.5L653.365 576.768C653.233 588.69 653.321 589.227 656.493 595.845C661.613 606.529 670.943 615.292 684 621.681C698.757 628.902 706.197 630.346 725.827 629.797C740.105 629.397 742.277 629.087 750.233 626.304C767.609 620.227 781.927 608.676 788.002 595.833C790.838 589.839 790.998 588.823 790.999 576.869L791 564.239L781.75 563.796C760.703 562.79 737.452 549.911 726.163 533.007L722.246 527.14L719.087 532.015ZM864.426 530.57C863.415 532.732 858.961 538.1 854.527 542.5C848.07 548.907 844.577 551.438 836.982 555.211C825.03 561.149 814.719 564 805.195 564H797.849L798.174 577.75C798.564 594.19 799.547 596.795 809.46 607.657C817.01 615.929 827.281 622.415 839.5 626.627C846.635 629.086 849.246 629.428 863.634 629.792C883.096 630.285 891.313 628.647 905.776 621.393C916.784 615.872 926.844 606.522 931.82 597.187C934.945 591.323 935 590.986 935 577.61V564H928.188C913.623 564 894.169 556.194 882.081 545.5C876.159 540.261 872.582 536.093 867.554 528.57C866.346 526.763 866.148 526.89 864.426 530.57ZM1008.15 531.432C1005.94 535.591 996.592 545.588 991 549.769C987.099 552.686 975.162 558.501 968 560.973C964.107 562.317 957.69 563.474 952 563.858L942.5 564.5L942.501 578L942.502 591.5L945.876 597.341C954.128 611.624 971.35 623.738 989.58 628.083C997.345 629.933 1000.57 630.147 1014.5 629.731C1032.38 629.198 1036.41 628.284 1049.82 621.72C1060.66 616.41 1072.25 605.422 1076.84 596.09C1079.89 589.906 1080 589.229 1080 576.84V564H1072.73C1057.57 564 1037.2 555.704 1025.5 544.771C1021.65 541.173 1016.92 535.724 1015 532.663C1013.08 529.601 1011.27 527.074 1011 527.048C1010.72 527.022 1009.44 528.994 1008.15 531.432ZM1152.09 532.335C1142.46 549.181 1115.19 564 1093.84 564H1087L1086.89 575.25C1086.74 589.923 1086.71 589.711 1089.54 595.319C1096.95 609.973 1109.86 620.3 1128.83 626.74C1135.46 628.991 1138.63 629.401 1152.23 629.776C1164.61 630.116 1169.59 629.846 1175.6 628.51C1193.05 624.628 1209.18 614.428 1217.69 601.894C1223.63 593.142 1224 591.712 1224 577.466V564.239L1214.75 563.745C1201.69 563.049 1185.35 556.965 1174.56 548.786C1168.77 544.398 1160.23 535.14 1157.93 530.75C1156.85 528.688 1155.78 527 1155.55 527C1155.33 527 1153.77 529.401 1152.09 532.335ZM69.262 603.698C57.017 622.411 35.923 634.383 12.5 635.912L3.5 636.5L3.524 649.5C3.546 661.888 3.687 662.782 6.524 668.497C10.112 675.727 21.16 687.129 29.063 691.759C32.123 693.551 38.648 696.455 43.563 698.212C51.977 701.219 53.474 701.429 69.141 701.802C83.607 702.146 86.871 701.922 94.106 700.093C114.244 695 130.089 683.541 137.513 668.701C140.948 661.835 141 661.542 141 648.999V636.267L131.25 635.73C116.819 634.935 103.582 629.954 90.267 620.308C85.411 616.791 76.458 606.758 74.107 602.198L72.404 598.897L69.262 603.698ZM214.742 602.414C213.86 604.265 210.41 608.695 207.077 612.258C194.243 625.978 175.333 634.908 157.25 635.788L148 636.239L148.044 648.869C148.104 666.158 150.12 671.063 161.96 682.73C169.159 689.824 176.543 694.193 188.054 698.17C196.864 701.214 198.564 701.459 213.302 701.806C225.582 702.095 230.806 701.799 236.74 700.479C256.887 695.997 273.561 684.627 281.368 670.048L285.235 662.825L285.151 650.163C285.105 643.198 285.052 637.163 285.034 636.75C285.015 636.337 281.675 636 277.612 636C269.327 636 256.245 632.663 247.693 628.368C236.264 622.629 226.059 613.577 218.838 602.774L216.348 599.048L214.742 602.414ZM356.6 605.85C351.137 614.067 345.802 618.908 335.036 625.416C325.025 631.469 309.75 636 299.359 636H291.977L292.024 648.75C292.069 660.902 292.213 661.786 295.11 667.603C302.952 683.348 320.168 695.804 340.704 700.592C345.91 701.806 351.359 702.085 364 701.787C379.469 701.423 381.089 701.196 389.925 698.16C406.359 692.512 419.922 681.58 426.427 668.738C429.973 661.739 430 661.587 430 648.843V636H422.71C410.035 636 395.433 631.137 383 622.776C378.875 620.003 374.555 616.676 373.399 615.384C372.243 614.092 371.006 613.253 370.649 613.518C370.292 613.783 370.221 613.704 370.491 613.342C370.761 612.98 369.48 610.843 367.643 608.592C365.807 606.341 363.632 603.208 362.81 601.628L361.316 598.756L356.6 605.85ZM502.172 604.349C498.139 611.496 486.349 622.075 476.995 626.942C466.449 632.428 453.592 636 444.388 636H437V649.54C437 661.325 437.274 663.625 439.113 667.29C446.466 681.944 460.429 692.931 479.5 699.069C489.44 702.268 515.646 703.035 526.269 700.439C547.439 695.263 563.567 683.529 571.864 667.267C573.734 663.601 574 661.394 574 649.54V636H566.73C559.183 636 548.593 633.566 539.545 629.753C528.202 624.972 515.082 614.174 509.367 604.916C507.359 601.662 505.598 599 505.453 599C505.309 599 503.832 601.407 502.172 604.349ZM791.696 603.25C781.209 621.119 758.264 634.433 735.75 635.713L726 636.267V649.674C726 661.323 726.277 663.632 728.113 667.29C736.276 683.558 753.401 695.838 774.457 700.523C780.356 701.835 785.523 702.12 797.768 701.81C812.636 701.433 814.049 701.22 823.5 697.925C829 696.008 836.094 692.717 839.264 690.613C847.586 685.089 856.524 675.64 859.992 668.699C862.88 662.921 863 662.153 863 649.486V636.291L853.25 635.71C835.707 634.664 819.265 627.23 806.384 614.521C802.47 610.66 798.298 605.587 797.114 603.25C795.929 600.913 794.786 599 794.575 599C794.363 599 793.068 600.913 791.696 603.25ZM1081.32 602.133C1069.88 621.289 1047.5 634.464 1024.25 635.734L1015 636.239L1014.9 642.369C1014.59 660.995 1014.73 662.544 1017.32 667.637C1025.39 683.574 1041.36 695.274 1061.61 700.084C1069.23 701.894 1072.78 702.138 1086.5 701.8C1101.49 701.43 1103.1 701.196 1112 698.105C1125.85 693.294 1135.94 686.361 1144.2 675.984C1151 667.449 1151.95 664.178 1151.98 649.369L1152 636.239L1142.75 635.788C1131.3 635.231 1118.65 631.172 1107.77 624.566C1099.72 619.682 1088.32 608.482 1085.2 602.397L1083.34 598.765L1081.32 602.133ZM646.28 604.776C633.825 623.052 613.311 634.487 590.75 635.73L581 636.267V649.032C581 661.102 581.154 662.089 583.822 667.161C592.669 683.98 606.649 694.475 627.468 699.929C638.427 702.799 661.029 702.844 672.244 700.018C692.78 694.843 708.93 682.64 716.603 666.5C718.714 662.06 718.982 660.086 718.99 648.884L719 636.267L709.25 635.707C699.087 635.123 687.468 631.994 679.538 627.706C669.716 622.396 658.153 612.118 653.225 604.317C651.726 601.945 650.275 600.014 650 600.028C649.725 600.041 648.051 602.177 646.28 604.776ZM936.881 602.25C932.558 610.425 919.744 622.461 909.999 627.5C901.358 631.969 889.481 635.194 879.677 635.734L869.854 636.274L870.177 649.956L870.5 663.638L875.337 671.569C883.764 685.386 898.468 695.433 917.194 700.168C924.082 701.91 927.574 702.142 941.859 701.804C957.597 701.432 959.015 701.232 968 698.102C973.225 696.282 979.975 693.166 983 691.178C990.649 686.153 1000.93 675.548 1004.5 668.998C1007.34 663.783 1007.51 662.799 1007.84 649.888L1008.19 636.276L998.343 635.726C978.535 634.618 961.065 626.141 947.388 611C945.152 608.525 942.478 605.038 941.446 603.25C939.225 599.406 938.472 599.241 936.881 602.25ZM1224.29 604.776C1212.37 622.333 1190.09 634.657 1168.25 635.768L1159 636.239V648.873C1159 661.21 1159.08 661.672 1162.41 668.545C1169.36 682.872 1186.4 695.246 1205.86 700.109C1213.13 701.925 1216.39 702.142 1230.86 701.77C1246.38 701.371 1248.1 701.131 1256.4 698.203C1261.29 696.476 1267.8 693.587 1270.87 691.782C1278.51 687.278 1289.89 675.644 1293.3 668.844C1295.95 663.568 1296.11 662.517 1296.13 649.879L1296.16 636.5L1286.83 635.871C1272.02 634.873 1259.89 630.327 1247.12 620.997C1240.62 616.246 1231.75 606.69 1229.71 602.25C1229.14 601.013 1228.41 600.012 1228.09 600.026C1227.76 600.04 1226.06 602.177 1224.29 604.776ZM0.425 651C0.425 662.825 0.569 667.663 0.746 661.75C0.923 655.837 0.923 646.163 0.746 640.25C0.569 634.337 0.425 639.175 0.425 651ZM141.27 676.346C131.466 692.736 106.113 707.172 84.446 708.701L76 709.297V722.182C76 734.11 76.195 735.454 78.632 740.283C85.552 754 99.773 765.167 118.5 771.591C124.907 773.789 152.332 774.723 162.795 773.1C182.375 770.062 201.318 757.138 209.961 740.922C212.897 735.413 213 734.781 213 722.251V709.282L204.75 708.763C195.024 708.152 181.907 704.038 171.5 698.336C163.733 694.08 149.798 680.931 146.491 674.737L144.482 670.975L141.27 676.346ZM429.624 677.063C418.699 693.936 395.195 707.128 373.25 708.704L365 709.297L364.849 719.399C364.636 733.678 364.797 734.852 367.807 741C370.937 747.392 381.299 758.296 388.503 762.779C395.504 767.135 404.162 770.825 411.366 772.524C418.671 774.247 444.845 774.515 453.29 772.954C472.429 769.416 492.894 754.53 499.665 739.221C501.705 734.611 502 732.365 502 721.471V709H496.958C485.484 709 470.099 704.143 457.163 696.438C450.133 692.25 439.626 681.907 435.965 675.572L433.43 671.185L429.624 677.063ZM864.023 675.453C861.122 681.444 849.991 692.334 842.004 696.994C829.334 704.385 814.358 709 803.042 709H798V721.607C798 733.521 798.163 734.556 800.968 740.432C806.893 752.848 821.459 764.716 838.039 770.64C844.758 773.04 847.241 773.351 863 773.76C878.379 774.16 881.576 773.959 889.378 772.096C903.393 768.75 912.996 763.306 923 753.034C926.575 749.363 930.743 743.822 932.261 740.72C934.787 735.562 935.043 733.976 935.261 722.171L935.5 709.262L926.898 708.706C909.913 707.607 891.402 699.211 878.926 686.948C874.7 682.795 870.279 677.507 869.101 675.198C867.923 672.889 866.784 671 866.569 671C866.354 671 865.208 673.004 864.023 675.453ZM1152.22 676.25C1150.58 679.138 1146.54 684.067 1143.24 687.205C1139.94 690.343 1137.41 693.155 1137.62 693.455C1137.83 693.755 1137.71 693.788 1137.36 693.53C1137.01 693.271 1135.55 693.889 1134.11 694.904C1124.23 701.879 1107.49 707.825 1095.25 708.704C1090.33 709.058 1086.97 709.742 1086.94 710.399C1086.9 711.004 1086.9 716.832 1086.93 723.35C1086.99 734.568 1087.15 735.501 1090.01 740.85C1093.66 747.683 1102.76 757.651 1109.28 761.97C1114.42 765.379 1122.78 769.312 1130 771.727C1136.95 774.051 1167.37 774.622 1176.91 772.608C1195.67 768.643 1213.68 755.433 1221.58 739.845C1223.77 735.516 1224 733.841 1224 722.033V709H1219.11C1213.18 709 1200.89 706.549 1194.89 704.173C1182.93 699.437 1175.47 694.65 1167.51 686.596C1163.07 682.101 1158.64 676.753 1157.67 674.712C1156.7 672.67 1155.74 671 1155.55 671C1155.35 671 1153.85 673.362 1152.22 676.25ZM285.588 676.44C281.213 683.905 271.24 693.071 261.978 698.139C249.179 705.143 241.087 707.602 227.25 708.692L220 709.263V721.665C220 733.056 220.214 734.491 222.623 739.283C226.32 746.634 231.979 754.131 233.243 753.35C233.831 752.986 234.02 753.158 233.665 753.733C232.8 755.132 242.661 762.465 251.052 766.662C254.78 768.527 261.552 770.994 266.1 772.145C273.446 774.002 276.389 774.181 292.435 773.745C311.942 773.214 315.043 772.551 327.504 766.241C340.151 759.838 349.952 750.298 355.247 739.238C357.78 733.946 357.994 732.548 357.997 721.25L358 709L352.25 708.993C330.615 708.967 301.478 693.128 292.015 676.25C290.704 673.913 289.307 672 288.911 672C288.514 672 287.019 673.998 285.588 676.44ZM575.657 675.003C572.312 680.666 563.285 690.158 557.393 694.207C544.949 702.76 527.016 708.978 514.75 708.993L509 709L509.001 721.25C509.002 732.775 509.178 733.874 511.992 739.821C518.581 753.75 531.383 764.345 549.321 770.718C555.602 772.949 558.588 773.328 573.185 773.748C591.869 774.285 599.63 773.335 609.861 769.256C625.059 763.197 638.915 750.901 644.089 738.881C646.184 734.016 646.716 731.073 646.874 723.495C646.982 718.342 646.78 712.972 646.426 711.562C645.841 709.229 645.323 708.999 640.642 708.993C626.319 708.973 603.173 699.496 591.728 688.964C588.303 685.812 583.925 680.727 582 677.664C580.075 674.602 578.26 672.074 577.966 672.048C577.672 672.022 576.633 673.351 575.657 675.003ZM719.9 675.25C717.79 680.359 704.369 693.158 696.5 697.567C683.946 704.6 674.156 707.712 661 708.851L653.5 709.5L653.571 722C653.637 733.538 653.859 734.96 656.453 740.474C663.502 755.458 684.012 769.7 703.376 773.057C712.518 774.642 741.795 773.744 748 771.688C766.503 765.557 780.599 754.551 787.588 740.775C790.931 734.186 791 733.797 791 721.525V709H785.958C774.275 709 759.117 704.321 746.914 696.948C740.048 692.8 727.776 680.94 724.462 675.25C723.421 673.462 722.27 672 721.906 672C721.541 672 720.639 673.462 719.9 675.25ZM1007.9 676.203C1003.26 685.285 987.716 697.874 975 702.841C966.224 706.27 954.166 709 947.801 709H941.922L942.062 721.422C942.225 735.876 943.682 740.167 951.746 749.949C959.359 759.184 968.426 765.22 983 770.757C988.779 772.952 991.505 773.282 1007.57 773.731C1023.63 774.18 1026.54 774.005 1033.89 772.147C1053.73 767.13 1069.32 755.351 1077.38 739.283C1079.79 734.486 1080 733.058 1080 721.533V709L1075.25 708.929C1062.99 708.745 1050.99 705.339 1038.39 698.467C1029.3 693.515 1018.68 683.732 1014.33 676.298C1012.94 673.934 1011.41 672 1010.92 672C1010.44 672 1009.08 673.891 1007.9 676.203ZM215.05 745.811C211.636 753.359 199.748 765.049 189.509 770.926C180.482 776.108 163.229 780.961 153.75 780.985L148 781V793.953C148 808.061 148.331 809.36 154.167 818.132C161.496 829.148 173.748 837.819 189.5 843.137C195.957 845.317 198.091 845.5 217 845.5C239.487 845.5 241.114 845.201 255.51 838.432C265.246 833.855 277.369 822.477 281.823 813.739C285.064 807.38 285.147 806.9 285.202 794.359L285.259 781.5L276.368 780.806C270.39 780.34 264.534 779.075 258.489 776.944C246.664 772.776 242.79 770.75 235.018 764.671C227.888 759.095 225.29 756.303 219.883 748.405L216.266 743.121L215.05 745.811ZM790.993 748.838C786.295 756.097 782.74 759.829 774.906 765.722C763.968 773.952 744.101 781 731.84 781H726L725.882 792.75C725.737 807.069 725.678 806.582 728.136 811.5C735.997 827.229 750.902 838.738 770.199 843.98C776.682 845.74 780.552 846.054 794.699 845.966C811.275 845.862 824 844.061 824 841.819C824 841.304 824.341 841.093 824.758 841.35C825.784 841.985 834.51 838.121 839.834 834.674C848.981 828.753 863.277 811.875 861.534 809.055C861.222 808.551 861.425 807.856 861.984 807.51C862.586 807.138 863 801.674 863 794.082V781.282L854.75 780.743C832.79 779.31 809.199 766.206 798.345 749.413L794.485 743.441L790.993 748.838ZM1082.58 744.646C1079.9 751.634 1065.56 765.726 1055.69 771.064C1046.84 775.857 1032.34 780.192 1023.25 780.763L1015 781.282V794.607V807.931L1018.59 814.46C1023.57 823.524 1033.69 833.073 1043.5 837.966C1056.99 844.696 1059.9 845.307 1080.52 845.76C1102.62 846.245 1107 845.466 1121.7 838.424C1133.08 832.971 1144.06 822.791 1148.9 813.208C1151.9 807.266 1152 806.615 1152 794.029V781L1146.25 780.985C1135.62 780.958 1119.98 776.277 1108.91 769.811C1100.94 765.158 1089.91 754.528 1086.07 747.8C1083.82 743.864 1083.13 743.233 1082.58 744.646ZM69.502 748.177C57.55 766.237 35.344 778.831 11.957 780.814L3.867 781.5L3.804 794.529C3.745 806.819 3.898 807.867 6.496 813.029C10.713 821.407 23.667 833.613 33.271 838.259C47.657 845.217 53.599 846.273 75.405 845.741C96.527 845.226 100.918 844.19 114.417 836.536C121.767 832.368 132.525 822.658 131.546 821.075C131.159 820.448 131.392 820.072 132.073 820.225C132.744 820.376 134.915 817.811 136.897 814.523L140.5 808.547L140.823 794.926L141.146 781.305L132.323 780.687C109.008 779.054 85.378 765.421 74.436 747.292L72.362 743.855L69.502 748.177ZM357.5 749.113C347.894 765.356 322.458 779.526 300.655 780.78L291.811 781.288L292.185 794.394C292.509 805.759 292.87 808.098 294.905 812C298.519 818.932 304.057 826.083 305.243 825.35C305.84 824.981 306.019 825.16 305.65 825.757C304.945 826.897 315.088 834.988 320.974 837.981C322.913 838.967 328.775 841.206 334 842.956L343.5 846.137L363 845.787C380.401 845.475 383.2 845.185 389 843.096C405.243 837.246 417.214 828.239 424.701 816.236L429.5 808.541L429.826 794.77L430.151 781L423.826 780.997C415.723 780.994 400.896 777.032 391.659 772.401C381.569 767.342 371.789 759.105 366.219 750.975C363.624 747.186 361.275 744.075 361 744.062C360.725 744.05 359.15 746.323 357.5 749.113ZM501.948 749.081C492.841 763.274 476.739 773.966 457.06 778.889C452.417 780.05 446.005 781 442.81 781H437V794.063C437 806.157 437.196 807.526 439.643 812.524C445.516 824.518 458.069 835.143 474 841.604L483.5 845.457L502.642 845.819C524.45 846.231 530.77 845.098 544.793 838.26C554.5 833.527 566.432 822.148 570.778 813.48C574.313 806.431 574.264 806.739 574.115 792.399L574 781.297L565.75 780.713C542.505 779.068 520.673 766.574 508.256 747.811C506.869 745.715 505.616 744 505.471 744C505.327 744 503.741 746.286 501.948 749.081ZM646.107 749.545C642.38 755.591 633.981 763.837 626.51 768.786C616.727 775.266 598.204 780.948 586.75 780.983L581 781V793.533C581 805.044 581.213 806.492 583.61 811.283C591.582 827.215 605.903 838.31 625.997 844.121C635.337 846.822 664.034 846.829 673.763 844.133C692.923 838.822 708.156 827.202 716.408 811.601C718.804 807.072 719 805.742 719 793.999V781.296L710.148 780.723C700.651 780.107 689.878 777.011 679.483 771.908C670.946 767.718 659.248 757.583 654.5 750.263C652.3 746.872 650.275 744.084 650 744.069C649.725 744.054 647.973 746.518 646.107 749.545ZM937.237 746.25C933.048 754.947 919.911 766.768 907.808 772.73C899.155 776.993 883.645 781 875.796 781H869.849L870.174 794.77L870.5 808.541L875.27 816.189C883.017 828.61 894.886 837.428 911.5 843.107C918.022 845.337 919.934 845.498 939.5 845.477L960.5 845.453L969.217 842.144C983.472 836.732 995.577 827.442 1002.4 816.679C1007.26 809.006 1008 805.876 1008 792.989V781.277L999.25 780.774C988.637 780.164 974.81 775.766 964.5 769.721C956.57 765.072 943.095 752.136 941.09 747.25C939.517 743.415 938.705 743.204 937.237 746.25ZM1227 744.941C1227 745.458 1224.35 749.178 1221.11 753.208C1215.74 759.88 1205.8 768.285 1199.13 771.797C1190.51 776.333 1173.12 781 1164.84 781H1159V793.736C1159 805.545 1159.19 806.854 1161.66 811.736C1163.13 814.631 1164.73 817 1165.22 817C1165.72 817 1165.85 817.434 1165.52 817.964C1165.19 818.494 1168.25 822.207 1172.31 826.214C1177.91 831.737 1181.97 834.651 1189.1 838.255C1202.62 845.092 1207.21 846 1228.31 846C1245.59 846 1246.52 845.896 1255.35 842.949C1260.38 841.271 1267.42 838.154 1271 836.023C1278.77 831.391 1290.61 819.799 1289.47 817.946C1288.97 817.147 1289.1 816.942 1289.81 817.383C1290.49 817.805 1291.93 816.094 1293.51 812.975C1295.9 808.272 1296.1 806.848 1296.13 794.688L1296.17 781.5L1288.33 780.855C1264.78 778.915 1242.52 766.344 1230.51 748.198C1227.67 743.907 1227 743.283 1227 744.941ZM0.425 795C0.425 806.825 0.569 811.663 0.746 805.75C0.923 799.837 0.923 790.163 0.746 784.25C0.569 778.337 0.425 783.175 0.425 795ZM144.006 815.911C143.994 818.661 133.005 831.879 126.798 836.608C123.334 839.247 120.169 841.878 119.765 842.453C119.361 843.029 119.024 843.153 119.015 842.729C119.007 842.304 116.32 843.352 113.044 845.057C104.347 849.584 95.717 851.946 85.25 852.666C79.691 853.048 75.957 853.74 75.892 854.401C75.279 860.639 76.446 880.127 77.597 882.885C80.216 889.157 88.736 899.434 95.164 904.074C110.642 915.248 120.232 917.963 144.303 917.985C163.855 918.003 172.116 916.554 182 911.374C195.226 904.442 204.525 895.676 210.401 884.601C212.821 880.039 213 878.793 213 866.502V853.302L203.495 852.677C179.95 851.131 155.226 835.969 145.318 817C144.6 815.625 144.01 815.135 144.006 815.911ZM285.592 820.939C275.673 837.65 251.725 851.218 229.579 852.672L220 853.302V865.991C220 878.14 220.13 878.941 223.054 884.792C230.337 899.366 247.707 912.371 265.312 916.429C274.218 918.483 303.903 918.549 312.336 916.535C325.907 913.293 341.465 903.442 349.494 893.007C356.646 883.713 358 879.254 358 864.989V853L351.75 852.983C333.28 852.931 312.686 843.771 299.256 829.632C295.499 825.678 291.825 820.993 291.092 819.221C290.358 817.45 289.474 816.009 289.129 816.02C288.783 816.031 287.191 818.244 285.592 820.939ZM431.9 818.25C431.256 819.487 428.3 823.494 425.33 827.154C413.459 841.782 389.68 853 370.542 853C366.797 853 364.987 853.405 364.959 854.25C364.936 854.938 364.914 860.983 364.909 867.685C364.902 878.662 365.145 880.353 367.365 884.733C374.62 899.051 390.231 911.009 408.151 915.975C417.647 918.606 446.001 918.883 456.688 916.448C468.713 913.709 479.427 907.672 488.545 898.499C500.092 886.881 501.4 883.767 501.813 866.901L502.146 853.303L492.823 852.71C479.911 851.891 469.978 848.538 456 840.281C450.194 836.852 438.59 825.076 435.985 819.97C434.871 817.786 433.759 816 433.515 816C433.27 816 432.544 817.013 431.9 818.25ZM575.082 820.279C564.883 838 537.586 852.921 515.25 852.983L509 853L509.001 865.75C509.002 877.72 509.178 878.872 511.88 884.584C517.721 896.93 532.727 909.255 549 915.07C554.735 917.119 557.755 917.439 574.672 917.787C591.462 918.133 594.839 917.93 601.849 916.157C610.556 913.956 620.94 909.32 621.72 907.287C621.989 906.585 622.545 906.219 622.954 906.472C623.364 906.725 626.022 904.949 628.861 902.526C643.203 890.284 646.748 882.741 646.78 864.395L646.799 853.29L637.15 852.688C615.209 851.32 592.807 838.762 581.287 821.375C579.875 819.244 578.443 817.183 578.106 816.796C577.768 816.409 576.407 817.976 575.082 820.279ZM719.903 819.656C708.617 837.919 685.844 851.036 662.311 852.829L653.5 853.5L653.345 864.5C653.146 878.536 655.148 885.078 662.381 894.034C668.282 901.34 675.478 906.763 685.681 911.596C697.635 917.257 703.841 918.222 725.5 917.785C742.129 917.449 745.308 917.116 750.971 915.115C766.251 909.718 781.97 896.944 787.978 885.044C790.88 879.295 791 878.538 791 866.029V853L785.75 852.992C772.156 852.973 756.833 848.032 744.083 839.556C737.28 835.033 728.486 825.953 724.326 819.156L722.279 815.813L719.903 819.656ZM865.287 817.75C863.075 823.703 851.128 836.436 844 840.438C829.607 848.518 819.102 852.035 807.25 852.742L798 853.294L798.001 865.897C798.002 877.719 798.18 878.872 800.876 884.5C806.85 896.972 821.41 909.107 837.238 914.807C843.886 917.202 846.087 917.455 863.278 917.805C884.815 918.245 892.177 917.112 903.602 911.603C916.372 905.445 928.08 894.512 932.569 884.553C934.492 880.285 934.897 877.441 935.173 866.25L935.5 852.999L929.708 853C907.427 853.001 882.733 839.815 870.248 821.25C868.306 818.362 866.541 816 866.327 816C866.113 816 865.645 816.788 865.287 817.75ZM1008.21 820.32C1004.74 826.86 993.533 837.337 984.5 842.489C973.719 848.637 962.724 852.023 951.25 852.727L942 853.294V865.109C942 879.379 943.601 884.443 951.064 893.77C957.057 901.259 962.751 905.645 973.5 911.049C985.163 916.913 990.671 917.926 1011 917.947C1024.85 917.962 1029.96 917.581 1035.5 916.123C1054.36 911.16 1069.71 899.255 1077.87 883.259C1079.72 879.633 1080 877.373 1080 866.187V853.294L1070.7 852.739C1053.02 851.684 1036.02 843.92 1023.04 830.976C1018.89 826.837 1014.61 821.775 1013.52 819.726C1012.44 817.677 1011.31 816 1011.02 816C1010.73 816 1009.47 817.944 1008.21 820.32ZM1152.5 820.606C1140.93 838.986 1114.89 853 1092.32 853H1087V866.304C1087 878.476 1087.21 880.032 1089.49 884.605C1090.86 887.353 1092.77 890.479 1093.74 891.551C1094.71 892.623 1096.8 895.075 1098.4 897C1102.35 901.786 1112.07 908.706 1119.69 912.161C1130.14 916.898 1136.75 917.97 1155.5 917.97C1175.31 917.969 1184.24 916.247 1194.95 910.365C1205.95 904.32 1210.92 900.09 1217.27 891.358C1223.33 883.025 1224.1 880.247 1224.25 866.143L1224.38 853.5L1215.43 852.865C1191.48 851.166 1167.88 837.028 1156.5 817.556C1155.64 816.085 1155.08 816.515 1152.5 820.606ZM213.5 893.201C211.85 895.966 207.232 901.289 203.237 905.031C190.939 916.552 170.463 925 154.84 925H148V938.127C148 950.819 148.104 951.466 151.136 957.624C157.904 971.372 174.949 983.749 194.428 989.058C201.549 990.999 204.095 991.168 219.428 990.721C238.025 990.178 242.799 989.138 255.181 982.931C263.275 978.873 274.096 970.179 277.822 964.74C284.605 954.838 285.189 952.789 285.129 939.109C285.099 932.174 285.058 926.163 285.037 925.75C285.017 925.337 281.962 924.993 278.25 924.985C257.044 924.939 232.575 911.801 220.539 894C218.494 890.975 216.748 888.427 216.66 888.337C216.572 888.248 215.15 890.436 213.5 893.201ZM356.701 894.807C352.029 901.643 342.061 910.616 334 915.243C325.389 920.186 312.196 924.145 302 924.847L292.5 925.5V939C292.5 952.004 292.606 952.691 295.379 957.695C301.885 969.434 312.919 978.938 327.011 984.939C337.88 989.568 346.118 991 361.877 991C378.056 991 386.262 989.233 399.676 982.859C410.242 977.84 421.748 967.019 426.793 957.36C429.927 951.36 430 950.921 430 938.11V925H422.73C401.365 925 376.513 911.578 364.972 893.807L361.275 888.115L356.701 894.807ZM502.132 893.25C492.616 909.823 468.23 923.579 446.25 924.771L437 925.273V938.676C437 954.071 437.646 956.027 446.261 966.698C455.247 977.828 470.571 986.606 486.799 989.918C489.714 990.513 498.304 991 505.889 991C522.558 991 531.271 989.102 544.5 982.589C555.224 977.309 565.897 967.437 570.733 958.325C574.067 952.043 574.255 950.757 574.101 935.25L574 925H567.16C546.304 925 520.898 911.467 509.938 894.519C507.619 890.934 505.592 888 505.434 888C505.276 888 503.79 890.362 502.132 893.25ZM793.151 890.129C792.226 891.611 792.198 891.995 793.056 891.465C793.829 890.988 794.079 891.219 793.755 892.111C793.477 892.875 792.807 893.409 792.266 893.297C791.725 893.185 789.543 895.493 787.418 898.425C777.424 912.216 751.401 925 733.324 925C729.296 925 725.985 925.337 725.967 925.75C725.949 926.163 725.904 932.198 725.867 939.162C725.8 951.567 725.863 951.941 728.979 957.618C735.221 968.991 743.217 976.556 755.598 982.8C769.106 989.612 773.59 990.5 794.5 990.5C811.914 990.5 814.084 990.3 820.5 988.11C839.147 981.744 850.798 972.881 859.486 958.453L863 952.618V938.809V925H855.73C835.438 925 808.82 910.65 798.237 894.005C794.637 888.343 794.386 888.152 793.151 890.129ZM935.094 893.477C930.781 900.289 928.604 902.618 920.195 909.412C908.87 918.562 891.107 925 877.186 925H870V938.11C870 950.921 870.073 951.36 873.207 957.36C878.164 966.852 889.818 977.886 900.184 982.904C913.18 989.195 921.738 991.003 938.41 990.983C946.696 990.972 955.178 990.386 959 989.56C967.291 987.767 978.586 983.067 984.719 978.857C991.792 974.002 1001.09 964.183 1004.5 957.966C1007.34 952.778 1007.51 951.808 1007.84 938.888L1008.19 925.276L998.343 924.737C987.672 924.152 979.482 921.795 967.445 915.846C959.58 911.959 946.801 900.482 941.991 892.985C940.231 890.243 938.726 888.022 938.646 888.048C938.566 888.074 936.967 890.517 935.094 893.477ZM1078.49 895.245C1066.14 912.468 1042.28 925 1021.84 925C1018.08 925 1014.98 925.337 1014.96 925.75C1014.94 926.163 1014.87 932.157 1014.81 939.07C1014.69 951.498 1014.73 951.714 1018.06 958.07C1022.91 967.355 1032.77 976.652 1043.69 982.259C1056.54 988.854 1066.25 991 1083.24 991C1100.34 991 1108.27 989.379 1121 983.28C1128.91 979.49 1131.85 977.373 1138.58 970.615C1143.93 965.246 1147.57 960.575 1149.33 956.812C1151.79 951.561 1152 950.12 1152 938.062V925H1144.89C1132.56 925 1116.05 919.462 1104.67 911.509C1098.29 907.05 1086.03 894.6 1085.97 892.514C1085.95 891.956 1085.39 890.776 1084.71 889.891C1083.65 888.496 1082.83 889.205 1078.49 895.245ZM1227.45 888.915C1227.76 889.418 1227.66 889.98 1227.24 890.165C1226.81 890.349 1224.77 892.832 1222.7 895.682C1210.7 912.186 1186.69 924.86 1167.25 924.958L1159 925V938.104V951.208L1162.61 958.085C1170.19 972.508 1186.48 984.183 1205.86 989.084C1213.15 990.928 1216.34 991.145 1230.86 990.783C1249.48 990.319 1253.47 989.35 1268.5 981.655C1278.48 976.542 1289.27 966.075 1293.49 957.415C1296.19 951.858 1296.37 950.714 1296.43 938.5L1296.5 925.5L1287 924.839C1274.41 923.962 1261.56 919.635 1250.55 912.563C1244.07 908.401 1234.52 898.836 1230.76 892.75C1229.15 890.138 1227.61 888 1227.35 888C1227.09 888 1227.14 888.412 1227.45 888.915ZM69.496 892.638C66.766 897.706 56.31 908.187 49.879 912.3C37.862 919.987 22.523 924.959 10.75 924.985C7.037 924.993 3.985 925.337 3.966 925.75C3.948 926.163 3.894 932.125 3.847 939C3.766 950.752 3.93 951.857 6.596 957.459C8.409 961.269 12.02 966.023 16.604 970.637C22.488 976.56 25.634 978.757 34.137 982.885C48.819 990.012 55.498 991.294 75.341 990.796C89.887 990.431 92.299 990.11 99.5 987.582C103.9 986.037 110.197 983.362 113.493 981.637C122.202 977.079 132.996 966.438 137.386 958.085L141 951.208V938.104V925L133.75 924.983C112.281 924.932 86.014 910.487 75.137 892.75C73.872 890.688 72.526 889 72.146 889C71.766 889 70.573 890.637 69.496 892.638ZM645.54 894.75C634.58 911.586 609.194 925 588.29 925H581V938.11C581 950.942 581.068 951.347 584.201 957.225C588.09 964.521 594.551 971.867 601.776 977.204C608.323 982.041 617.544 986.4 619.141 985.413C619.805 985.002 620.042 985.123 619.691 985.692C618.255 988.014 631.238 990.387 647.521 990.779C661.069 991.105 664.775 990.857 671.521 989.172C680.849 986.842 693.651 981.146 698.263 977.274C705.535 971.169 713.371 962.165 716.101 956.779C718.854 951.345 719 950.408 719 938.162V925.267L709.25 924.732C687.345 923.53 665.323 911.203 653.9 893.75C652.19 891.138 650.452 889 650.037 889C649.623 889 647.599 891.587 645.54 894.75ZM0.426 939.5C0.427 951.6 0.571 956.413 0.747 950.195C0.923 943.977 0.922 934.077 0.746 928.195C0.569 922.313 0.425 927.4 0.426 939.5ZM142.174 963.609C133.075 981.216 105.238 996.99 83.25 996.997L76 997V1010.53C76 1022.87 76.214 1024.49 78.42 1028.84C82.11 1036.12 88.112 1043.16 95.127 1048.44C109.682 1059.38 121.956 1063 144.447 1063C157.31 1062.99 160.847 1062.63 168.754 1060.52C179.724 1057.58 184.245 1055.42 193.141 1048.86C200.604 1043.37 205.238 1038.11 209.856 1029.92C212.952 1024.42 213 1024.13 213 1010.8V997.267L203.25 996.772C181.613 995.671 158.859 982.856 147.92 965.609L144.184 959.719L142.174 963.609ZM287.239 962.823C286.587 964.296 283.602 968.455 280.605 972.065C268.63 986.491 246.182 997 227.34 997H220V1010.17V1023.33L223.589 1029.86C228.444 1038.7 231.324 1041.99 239.761 1048.39C254.241 1059.36 266.449 1063 288.726 1063C305.514 1063 315.902 1061.03 326.394 1055.86C338.88 1049.71 349.702 1039.38 355.087 1028.46C357.974 1022.61 358.056 1022.04 357.782 1009.96L357.5 997.5L348.5 996.906C337.849 996.204 332.133 994.916 324.288 991.453C310.809 985.503 296.446 973.714 291.959 964.919C289.423 959.948 288.661 959.61 287.239 962.823ZM430.508 964.773C418.826 983.346 394.181 997 372.34 997H365L364.82 1007.25C364.563 1021.95 364.802 1023.67 368.001 1030C371.718 1037.36 374.826 1040.99 382.911 1047.39C391.366 1054.07 397.852 1057.39 408.589 1060.5C416.145 1062.69 419.156 1063 432.695 1063C456.385 1063 468.406 1059.33 484.695 1047.1C489.139 1043.77 497.578 1033.15 499.965 1027.89C501.624 1024.23 501.96 1021.31 501.978 1010.38L502 997.267L492.25 996.774C473.448 995.824 455.572 987.16 442.18 972.507C439.287 969.342 436.146 965.243 435.2 963.399L433.481 960.047L430.508 964.773ZM577 961.264C577 961.96 574.266 965.977 570.924 970.192C558.206 986.233 536.167 997 516.053 997H509V1010.1V1023.21L512.693 1030.23C514.724 1034.1 518.511 1039.45 521.109 1042.11C527.962 1049.15 540.115 1056.57 550 1059.76C558.074 1062.36 559.476 1062.5 578 1062.5C599.806 1062.5 604.02 1061.63 618.497 1054.13C630.551 1047.88 643.299 1033.6 645.657 1023.71C646.559 1019.93 647.242 1002.1 646.586 999.486C645.994 997.127 645.593 996.999 638.731 996.983C626.026 996.953 612.767 992.487 599.32 983.709C592.281 979.114 582.622 969.082 579.621 963.25C577.856 959.82 577 959.171 577 961.264ZM719.742 964.133C713.476 974.717 701.521 984.715 687.565 991.043C679.163 994.853 673.481 996.182 662.5 996.906L653.5 997.5L653.544 1010.5C653.585 1022.75 653.754 1023.85 656.484 1029.5C660.659 1038.15 672.244 1049.34 682.502 1054.62C695.493 1061.32 701.556 1062.5 723 1062.5C739.509 1062.49 742.244 1062.25 748.409 1060.23C767.699 1053.91 780.672 1043.54 788.368 1028.28C790.809 1023.44 791 1022.12 791 1010.03V997H783.482C775.339 997 764.465 994.507 755.702 990.632C743.254 985.127 729.337 972.917 723.914 962.742L722.327 959.766L719.742 964.133ZM865.132 962.681C862.586 968.829 851.66 979.823 842.3 985.657C831.455 992.417 819.738 996.19 807.75 996.784L798 997.267V1010.1C798 1021.42 798.28 1023.57 800.35 1028.22C803.801 1035.97 811.162 1044.37 819.317 1049.87C829.356 1056.63 831.535 1057.63 842.522 1060.48C855.454 1063.84 877.345 1064.09 889.59 1061.01C907.532 1056.51 923.967 1044.69 931.428 1030.92C934.962 1024.4 934.996 1024.22 935.268 1010.67L935.543 997H928.188C905.699 997 880.239 982.611 868.413 963.219L866.327 959.797L865.132 962.681ZM1008.28 964.686C996.737 983.428 973.007 996.257 948 997.276L942.5 997.5L942.218 1009.96C941.939 1022.23 941.985 1022.53 945.15 1028.96C949.5 1037.79 961.02 1049.18 970.883 1054.39C982.761 1060.66 993.667 1063 1010.95 1062.99C1021.84 1062.99 1027.51 1062.5 1033.5 1061.06C1042.52 1058.9 1052.33 1054.7 1051.23 1053.49C1050.83 1053.04 1051.05 1053 1051.73 1053.39C1053.4 1054.35 1065.53 1045.08 1070.3 1039.19C1072.39 1036.61 1075.43 1031.93 1077.05 1028.78C1079.87 1023.3 1080 1022.49 1080 1010.03V997H1072.56C1062.17 997 1052.99 994.671 1042.5 989.366C1029.34 982.712 1019.71 974.297 1013.88 964.348L1011.25 959.871L1008.28 964.686ZM1153.34 963.799C1142.96 981.987 1116.36 997 1094.52 997H1087V1010.61C1087 1024 1087.05 1024.32 1090.2 1030.22C1095.83 1040.78 1108.41 1051.81 1120.98 1057.21C1130.46 1061.27 1140.77 1062.99 1155.83 1062.99C1177.5 1063 1190.5 1059.14 1204.68 1048.46C1211.99 1042.96 1217.93 1035.98 1221.86 1028.27C1223.73 1024.6 1224 1022.39 1224 1010.54V997L1216.75 996.985C1206.9 996.964 1195.3 993.857 1185.37 988.575C1180.82 986.155 1176.32 983.573 1175.36 982.837C1170.5 979.12 1159.76 967.459 1157.98 963.968C1156.87 961.786 1155.86 960.003 1155.73 960.008C1155.6 960.012 1154.53 961.718 1153.34 963.799ZM215.01 1034.97C211.999 1042.24 198.04 1055.45 188.054 1060.47C178.356 1065.35 165.606 1069.05 156.25 1069.71L148 1070.3V1082.99C148 1095.23 148.112 1095.91 151.157 1102C157.312 1114.32 172.085 1126.17 188.336 1131.82C194.723 1134.05 197.518 1134.36 214.118 1134.75C236.03 1135.26 240.51 1134.45 254.936 1127.36C266.539 1121.66 277.938 1110.98 282.286 1101.72C284.802 1096.37 285 1095 285 1082.97V1070H279.188C264.768 1070 242.321 1060.71 230.569 1049.89C226.758 1046.37 221.985 1040.89 219.964 1037.69L216.29 1031.89L215.01 1034.97ZM502.729 1036.88C492.731 1054.42 464.572 1069.97 442.75 1069.99L437 1070V1083.03C437 1095.43 437.141 1096.34 439.908 1101.82C447.232 1116.33 464.763 1129.14 483.258 1133.5C493.228 1135.85 520.577 1135.54 529.835 1132.98C547.685 1128.03 564.06 1115.75 570.922 1102.16C573.89 1096.28 574 1095.59 574 1083.03V1070L568.25 1069.98C557.375 1069.96 538.14 1063.61 528.092 1056.74C520.922 1051.83 513.037 1044.03 509.028 1037.88L505.364 1032.25L502.729 1036.88ZM790.772 1037.88C786.152 1044.85 783.865 1047.38 777.415 1052.67C766.332 1061.76 748.8 1068.68 734.25 1069.71L726 1070.3L725.874 1080.4C725.804 1085.95 725.769 1091.68 725.796 1093.12C725.887 1098.12 732.024 1108.25 739.389 1115.56C747.488 1123.61 758.152 1129.65 770.092 1132.96C776.154 1134.64 780.388 1135 793.98 1134.98C813.708 1134.97 819.563 1133.81 832.872 1127.29C840.416 1123.6 843.792 1121.18 849.481 1115.42C853.408 1111.44 858.056 1105.5 859.81 1102.2C862.925 1096.36 863 1095.91 863 1083.26V1070.3L854.75 1069.7C845.347 1069.03 835.849 1066.35 825 1061.3C814.004 1056.18 803.862 1047.25 797.525 1037.1L794.5 1032.26L790.772 1037.88ZM1081.24 1035.77C1071.25 1053.43 1046.16 1068.11 1023.25 1069.71L1015 1070.28V1083.11C1015 1094.99 1015.2 1096.38 1017.71 1101.72C1019.49 1105.51 1023.07 1110.15 1028.09 1115.18C1034.27 1121.37 1037.57 1123.74 1045.13 1127.41C1059.52 1134.41 1063.95 1135.22 1085.82 1134.8C1103.14 1134.46 1105.04 1134.24 1111.87 1131.74C1128.76 1125.55 1142.71 1114.28 1148.96 1101.76C1151.87 1095.94 1152 1095.14 1152 1082.84V1070L1146.25 1069.99C1137.8 1069.98 1125.03 1066.58 1114.52 1061.54C1107.4 1058.12 1103.37 1055.31 1097.05 1049.36C1092.53 1045.11 1087.6 1039.47 1086.09 1036.83L1083.35 1032.03L1081.24 1035.77ZM68.736 1038.19C64.499 1044.8 54.813 1053.84 47.186 1058.31C35.664 1065.07 24.348 1068.69 11.133 1069.85L3.766 1070.5L3.931 1083.5C4.144 1100.25 5.708 1104.05 16.935 1115.12C25.793 1123.84 35.746 1129.54 48.165 1132.98C58.291 1135.79 85.242 1135.89 95.622 1133.17C113.863 1128.38 130.41 1116.13 137.371 1102.28C140.958 1095.13 141 1094.91 141 1082.67V1070.3L132.25 1069.71C109.871 1068.21 88.836 1056.44 75.907 1038.19L72.143 1032.87L68.736 1038.19ZM357.237 1038.4C347.317 1054.99 319.141 1070 297.938 1070H292V1082.6C292 1095.15 292.018 1095.24 295.609 1102.07C300.327 1111.05 311.938 1122.26 321.113 1126.69C335.744 1133.76 338.785 1134.4 359.311 1134.8C376.274 1135.12 378.83 1134.95 385.311 1133.01C404.223 1127.37 418.939 1116.36 426.263 1102.35L430 1095.21V1082.6V1070H424.19C411.295 1070 391.291 1062.69 379.294 1053.6C373.381 1049.12 366.748 1041.77 363.204 1035.77C362.305 1034.25 361.321 1033 361.018 1033C360.715 1033 359.014 1035.43 357.237 1038.4ZM646.855 1037.62C645.046 1040.3 640.401 1045.57 636.533 1049.33C624.789 1060.75 602.552 1069.97 586.75 1069.99L581 1070V1082.45C581 1094.27 581.155 1095.23 584.032 1101.2C589.111 1111.75 598.892 1121.02 611.556 1127.3C625.28 1134.11 627.368 1134.5 650 1134.5C668.966 1134.5 671.024 1134.32 677.5 1132.12C686.282 1129.13 695 1124.32 701.638 1118.78C708.28 1113.25 710.966 1109.95 715.387 1101.91L719 1095.33V1082.67V1070H713.19C705.047 1070 692.088 1066.55 681.5 1061.57C670.549 1056.41 660.367 1047.97 654.438 1039.14L650.144 1032.74L646.855 1037.62ZM937.728 1034.25C936.33 1037.85 927.402 1048.14 921.745 1052.66C908.943 1062.91 890.244 1069.95 875.75 1069.98L870 1070V1082.53C870 1094.04 870.213 1095.49 872.61 1100.28C880.138 1115.33 892.841 1125.72 911.512 1132.11C918.023 1134.34 919.934 1134.5 939.5 1134.47C960.096 1134.45 960.642 1134.4 967.885 1131.63C974.828 1128.98 981.94 1125.43 986.5 1122.36C992.185 1118.52 1001.37 1107.96 1004.55 1101.62C1007.93 1094.88 1008 1094.46 1008 1082.37V1070L1002.25 1069.99C980.357 1069.97 951.612 1054.32 941.981 1037.18C939.533 1032.82 938.546 1032.14 937.728 1034.25ZM1224.69 1037.25C1221.64 1042.46 1212.46 1051.9 1206.41 1056.06C1195.65 1063.47 1176.15 1070 1164.81 1070H1159V1082.6V1095.19L1163.11 1103.09C1169.74 1115.84 1181.17 1124.91 1199 1131.57C1206.03 1134.2 1207.69 1134.4 1225.28 1134.78C1235.61 1135.01 1244.84 1134.85 1245.78 1134.44C1246.73 1134.03 1248.34 1133.8 1249.36 1133.93C1250.4 1134.06 1250.94 1133.72 1250.59 1133.15C1250.25 1132.59 1250.49 1131.81 1251.14 1131.42C1251.92 1130.93 1252.04 1131.13 1251.51 1131.99C1250.2 1134.1 1255.39 1132.46 1265.92 1127.43C1273.78 1123.67 1276.68 1121.57 1283.5 1114.71C1290.33 1107.85 1292.12 1105.35 1294.39 1099.5C1296.84 1093.15 1297.07 1091.47 1296.8 1081.5L1296.5 1070.5L1288.5 1069.87C1284.1 1069.52 1278.25 1068.67 1275.5 1067.97C1269.04 1066.35 1255.75 1060.44 1250 1056.63C1243.92 1052.61 1231.67 1040.13 1229.92 1036.19C1229.15 1034.44 1228.21 1033 1227.85 1033C1227.49 1033 1226.07 1034.91 1224.69 1037.25ZM0.425 1084C0.425 1095.82 0.569 1100.66 0.746 1094.75C0.923 1088.84 0.923 1079.16 0.746 1073.25C0.569 1067.34 0.425 1072.18 0.425 1084ZM144.03 1104.6C143.996 1105.85 139.962 1111.94 135.5 1117.48C125.527 1129.88 103.602 1140.23 84.25 1141.68L76 1142.3V1155.03C76 1169.26 76.783 1172.16 82.859 1180.49C87.411 1186.73 88.137 1187.45 95.5 1193.11C103.356 1199.14 107.735 1201.29 118.505 1204.42C126.546 1206.75 129.088 1207 144.595 1207C160.059 1207 162.662 1206.74 170.638 1204.44C185.137 1200.25 197.286 1192.15 205.403 1181.27C212.447 1171.83 213 1169.93 213 1155.18V1142.3L204.25 1141.7C179.796 1140.02 155.994 1125.44 145.148 1105.5C144.55 1104.4 144.047 1103.99 144.03 1104.6ZM432.549 1105.84C431.569 1108.93 420.298 1122.78 417.657 1124.14C416.471 1124.75 414.6 1126.06 413.5 1127.05C405.765 1133.99 382.924 1142 370.872 1142H365V1154.92C365 1169.6 365.914 1172.75 372.808 1181.89C380.823 1192.51 393.312 1200.62 407.773 1204.6C415.388 1206.7 418.634 1207 433.533 1207C451.412 1207 457.07 1206.13 467.339 1201.81C475.872 1198.21 483.129 1193.14 490.174 1185.85C500.245 1175.43 501.432 1172.36 501.826 1155.75L502.151 1142L495.826 1142C488.066 1141.99 472.764 1138.02 464.684 1133.92C450.956 1126.94 440.376 1117.49 435.38 1107.74C433.423 1103.93 433.204 1103.78 432.549 1105.84ZM864.448 1108.12C861.627 1114.37 849.589 1126 840.5 1131.26C830.786 1136.87 817.347 1140.98 806.25 1141.73L798 1142.28V1155.2C798 1167.12 798.208 1168.57 800.67 1173.81C804.109 1181.14 815.239 1192.33 824.5 1197.78C828.35 1200.04 835.488 1203.04 840.362 1204.45C848.354 1206.75 850.941 1207 866.717 1207C882.661 1207 884.976 1206.77 892.855 1204.41C902.697 1201.45 910.062 1197.64 918 1191.39C924.11 1186.58 927.234 1182.92 931.576 1175.5C934.346 1170.76 934.526 1169.75 935 1156.25L935.5 1142L929.44 1142C926.108 1142 919.583 1141.05 914.94 1139.88C895.127 1134.9 880.149 1124.87 870.053 1109.82L866.243 1104.14L864.448 1108.12ZM1154.15 1106.57C1151.87 1111.57 1143.65 1121.09 1137.85 1125.45C1134.69 1127.83 1132.42 1130.12 1132.8 1130.55C1133.19 1130.97 1133 1131.03 1132.38 1130.68C1131.77 1130.33 1128.78 1131.4 1125.73 1133.05C1116.09 1138.27 1102.22 1142 1092.45 1142H1087L1087.02 1155.25C1087.05 1170.41 1087.74 1172.68 1095.35 1182.41C1099.87 1188.18 1110.01 1196.42 1117 1199.98C1118.92 1200.97 1124.24 1202.95 1128.8 1204.39C1136.55 1206.83 1138.38 1207 1156.33 1207C1171.59 1207 1175.99 1206.7 1177.65 1205.54C1178.8 1204.73 1179.95 1204.28 1180.2 1204.54C1181 1205.33 1191.9 1201.21 1197.34 1198.05C1212.8 1189.07 1223.82 1174.75 1224.28 1163.05C1224.37 1160.55 1224.35 1154.79 1224.23 1150.25L1224 1142H1218.11C1210.38 1142 1194.65 1137.85 1186.17 1133.58C1180.35 1130.66 1170.77 1123.97 1167.5 1120.55C1164.39 1117.31 1158.08 1109.11 1156.83 1106.69L1155.38 1103.87L1154.15 1106.57ZM287.26 1107.33C285.316 1111.6 276.2 1121.71 270.142 1126.31C258.428 1135.22 239.451 1142 226.227 1142H219.849L220.174 1155.79C220.498 1169.51 220.52 1169.62 224 1175.54C231.916 1189.01 246.132 1199.51 263.264 1204.54C270.592 1206.69 273.455 1206.96 289.238 1206.98C306.188 1207 307.388 1206.87 316.246 1204.03C330.81 1199.37 340.122 1193.09 349.211 1181.81C356.868 1172.31 358 1168.78 358 1154.37V1142L351.75 1141.99C342.506 1141.98 326.911 1137.66 317.408 1132.48C307.778 1127.23 296.099 1116.75 292.261 1109.92C290.742 1107.21 289.235 1105 288.911 1105C288.586 1105 287.844 1106.05 287.26 1107.33ZM576.262 1107.32C574.413 1111.38 565.544 1121.34 559.911 1125.69C552.426 1131.46 539.958 1137.38 531 1139.41C526.875 1140.35 522.825 1141.47 522 1141.89C521.175 1142.31 517.913 1142.53 514.75 1142.37L509 1142.08V1154.57C509 1166.08 509.208 1167.48 511.631 1172.28C513.078 1175.15 514.593 1177.72 514.996 1178C515.4 1178.28 516.038 1179.48 516.414 1180.69C517.282 1183.47 528.918 1193.83 535.609 1197.77C538.419 1199.43 544.269 1202.06 548.609 1203.62C556.023 1206.29 557.636 1206.48 575.305 1206.81C593.084 1207.14 594.6 1207.02 603.089 1204.58C614.256 1201.38 618.634 1199.21 627.5 1192.47C635.235 1186.59 640.861 1179.83 644.094 1172.52C645.903 1168.43 646.21 1165.86 646.169 1155.11L646.121 1142.5L638.311 1141.89C614.943 1140.06 592.782 1127.71 580.766 1109.82C579.208 1107.5 577.797 1105.46 577.629 1105.3C577.462 1105.13 576.847 1106.04 576.262 1107.32ZM720.968 1107.14C719.632 1109.72 710.498 1120.75 708.038 1122.75C693.584 1134.49 679.345 1140.36 661.722 1141.82L653.5 1142.5V1155C653.5 1166.38 653.733 1167.99 656.097 1173C662.48 1186.52 675.654 1197.37 693.5 1203.81C699.849 1206.1 702.291 1206.38 719.758 1206.76C738.189 1207.17 739.407 1207.07 748.112 1204.57C753.114 1203.14 760.308 1200.12 764.097 1197.87C773.535 1192.27 783.72 1182.03 787.75 1174.11C790.911 1167.89 791 1167.37 791 1155.01V1142.3L782.25 1141.69C773.296 1141.07 764.166 1138.82 755.771 1135.15C749.143 1132.26 736.939 1123.85 733.439 1119.76C726.998 1112.24 725.801 1110.72 724.03 1107.81L722.188 1104.78L720.968 1107.14ZM1008.83 1108.17C1004.6 1116.9 989.382 1129.85 976.848 1135.38C968.913 1138.88 955.471 1142 948.31 1142H942V1154.6C942 1166.13 942.219 1167.65 944.554 1172.29C948.142 1179.44 953.583 1186.59 957.858 1189.78C959.86 1191.28 962.327 1193.25 963.34 1194.16C966.064 1196.61 975.597 1201.43 983 1204.09C988.775 1206.17 991.638 1206.47 1008.67 1206.79C1026.01 1207.12 1028.58 1206.94 1035.67 1204.96C1045.7 1202.15 1053.9 1198.01 1061.71 1191.82C1068.95 1186.07 1072.83 1181.43 1076.99 1173.51C1079.89 1168.02 1080 1167.3 1080 1154.9V1142L1073.75 1141.98C1065.96 1141.95 1051.56 1138.33 1042.96 1134.22C1031.06 1128.54 1023.5 1121.86 1011.97 1106.83C1010.49 1104.89 1010.4 1104.92 1008.83 1108.17ZM213.632 1181.5C205.166 1197.67 179.057 1212.62 157.25 1213.78L148 1214.27V1227.2C148 1239.08 148.213 1240.57 150.628 1245.68C154.136 1253.09 164.445 1263.83 173.047 1269.03C176.89 1271.35 183.964 1274.64 188.767 1276.33C196.84 1279.18 198.718 1279.44 213.61 1279.81C227.694 1280.15 230.837 1279.92 238.61 1278C257.363 1273.36 274.97 1260.75 281.815 1247.06C284.917 1240.85 285 1240.33 285 1227.34V1214H278.314C269.363 1214 260.368 1211.67 249.5 1206.55C235.037 1199.73 225.427 1191.53 218.962 1180.5L216.423 1176.17L213.632 1181.5ZM69.167 1181.79C57.213 1199.82 35.421 1212.25 13 1213.83L3.5 1214.5L3.637 1227.5C3.764 1239.53 3.985 1240.94 6.585 1246.42C10.966 1255.65 21.39 1265.46 33.024 1271.29C47.68 1278.64 55.844 1280.29 75.366 1279.8C90.314 1279.43 92.134 1279.17 100.123 1276.32C117.747 1270.02 131.389 1259.1 138.009 1245.98C140.869 1240.32 141 1239.49 141 1227.17V1214.27L131.75 1213.77C109.703 1212.57 86.156 1199.25 75.24 1181.79L72.292 1177.07L69.167 1181.79ZM358.179 1181.37C349.222 1198.25 320.85 1214 299.388 1214H292V1226.86C292 1239.33 292.096 1239.91 295.152 1245.83C303.452 1261.92 320.805 1274.23 341.315 1278.56C345.352 1279.41 353.736 1280 361.877 1280C378.217 1280 386.958 1278.09 399.949 1271.67C410.719 1266.35 422.103 1255.55 426.817 1246.16C429.903 1240.02 430 1239.43 430 1226.91V1214H422.612C413.328 1214 400.531 1210.42 389.72 1204.79C380.426 1199.96 367.512 1188.33 363.919 1181.55C362.59 1179.05 361.277 1177 361 1177C360.723 1177 359.454 1178.97 358.179 1181.37ZM502.13 1182.27C492.905 1198.4 468.118 1212.4 446.149 1213.91L437.5 1214.5L437.22 1227.83C437.051 1235.93 437.308 1240.93 437.877 1240.58C438.392 1240.26 438.606 1240.79 438.353 1241.76C437.769 1243.99 444.245 1254.05 450.187 1260.14C456.034 1266.14 468.364 1273.34 478.5 1276.69C485.464 1279 488.585 1279.4 502.61 1279.77C516.824 1280.15 519.766 1279.94 527.61 1277.98C547.815 1272.93 565.114 1259.98 572.051 1244.7C573.613 1241.26 573.96 1238.11 573.978 1227.25L574 1214H566.814C547.208 1214 521.111 1200.27 510.494 1184.38C508.335 1181.15 506.269 1178.13 505.903 1177.67C505.538 1177.21 503.84 1179.28 502.13 1182.27ZM646.5 1182.13C642.345 1189.19 630.534 1199.95 622.044 1204.41C610.369 1210.54 601.677 1213.13 590.75 1213.73L581 1214.27V1226.99C581 1239.36 581.09 1239.89 584.213 1245.95C589.219 1255.65 599.668 1265.71 610.511 1271.24C623.824 1278.04 632.447 1280 649.123 1280C666.895 1280 674.749 1278.36 687.82 1271.93C696.194 1267.81 699.495 1265.49 705.32 1259.63C709.693 1255.23 713.771 1249.93 715.75 1246.06C718.914 1239.89 719 1239.38 719 1227.01V1214.29L709.25 1213.71C688.149 1212.45 665.763 1200.24 654.469 1183.82C652.561 1181.04 651 1178.38 651 1177.89C651 1175.78 649.292 1177.39 646.5 1182.13ZM790.141 1183.4C787.839 1186.96 783.153 1192.32 779.728 1195.31C767.915 1205.64 747.157 1214 733.324 1214H726L726.022 1227.25C726.047 1242.53 726.876 1245.19 734.72 1255.18C742.866 1265.55 757.201 1274.12 773.102 1278.15C780.115 1279.92 783.447 1280.14 797.366 1279.77C816.248 1279.27 824.211 1277.21 837.139 1269.5C847.52 1263.31 853.909 1256.98 859.829 1247C862.297 1242.84 862.538 1241.42 863 1228.37L863.5 1214.24L854 1213.74C833.364 1212.66 809.916 1199.99 799.417 1184.27C797.3 1181.09 795.289 1178.15 794.947 1177.71C794.606 1177.28 792.443 1179.84 790.141 1183.4ZM935 1182.65C924.158 1199.87 898.188 1214 877.388 1214H870V1226.73C870 1239.02 870.11 1239.69 873.167 1245.84C878.775 1257.11 887.948 1265.64 901.782 1272.44C914.597 1278.74 918.546 1279.49 939 1279.49C955.711 1279.5 958.177 1279.28 964.5 1277.17C981.853 1271.4 995.629 1261.11 1003.57 1248L1007.5 1241.5L1007.82 1227.89L1008.15 1214.27L998.323 1213.76C976.441 1212.6 952.785 1199.15 941.913 1181.69C940.309 1179.11 938.885 1177.02 938.748 1177.05C938.612 1177.07 936.925 1179.6 935 1182.65ZM1080.05 1182.07C1073.61 1192.01 1064.47 1199.75 1051.5 1206.24C1041.93 1211.03 1034.12 1213.17 1023.63 1213.89L1014.77 1214.5L1014.9 1227.5C1015.03 1240.01 1015.16 1240.74 1018.27 1247C1024.45 1259.44 1037.69 1269.89 1055.5 1276.37C1062.66 1278.98 1065.1 1279.33 1078.66 1279.76C1096.01 1280.31 1104.04 1279.24 1114.69 1274.99C1129.8 1268.94 1143.71 1257.24 1149.42 1245.78C1151.8 1241 1152 1239.6 1152 1227.3V1214H1145.16C1128.84 1214 1108.71 1205.41 1095.98 1193C1091.74 1188.88 1087.31 1183.59 1086.12 1181.25C1084.93 1178.91 1083.82 1177 1083.65 1177C1083.48 1177 1081.86 1179.28 1080.05 1182.07ZM1225.11 1181.2C1223.79 1183.51 1220.76 1187.48 1218.37 1190.04C1215.98 1192.59 1214.24 1194.98 1214.51 1195.34C1214.78 1195.7 1214.73 1195.81 1214.41 1195.57C1214.08 1195.34 1210.82 1197.21 1207.16 1199.73C1194.23 1208.63 1178.84 1214 1166.27 1214H1159V1226.52C1159 1238.13 1159.21 1239.5 1161.83 1245.28C1168.56 1260.13 1186.07 1273.08 1206.36 1278.21C1213.25 1279.95 1216.55 1280.16 1230.91 1279.75C1249.88 1279.2 1254.59 1278.03 1269 1270.24C1279.3 1264.68 1288.09 1256.15 1292.95 1246.99C1296.36 1240.57 1296.4 1240.36 1296.45 1227.5L1296.5 1214.5L1287.5 1213.92C1266.03 1212.54 1242.57 1199.47 1231.56 1182.75C1229.48 1179.59 1227.72 1177 1227.64 1177.01C1227.56 1177.01 1226.42 1178.9 1225.11 1181.2ZM0.426 1228.5C0.427 1240.6 0.571 1245.41 0.747 1239.19C0.923 1232.98 0.922 1223.08 0.746 1217.19C0.569 1211.31 0.425 1216.4 0.426 1228.5ZM1153.08 1258.58C1153.13 1259.75 1153.36 1259.98 1153.68 1259.19C1153.97 1258.47 1153.94 1257.6 1153.6 1257.27C1153.27 1256.94 1153.04 1257.53 1153.08 1258.58Z" fill="#FFFFED"/>
</svg>
