<svg width="3062" height="191" viewBox="0 0 3062 191" fill="none" xmlns="http://www.w3.org/2000/svg">
<g clip-path="url(#clip0_284_468)">
<path d="M24 48L6 96L9.5 295H193V86.5L175.5 48L144.5 20L112.5 11.5L70 16L24 48Z" fill="#FFFFED"/>
<path fill-rule="evenodd" clip-rule="evenodd" d="M88.718 0.615126C47.213 7.16613 14.721 36.7541 3.227 78.4671L0.576 88.0861L0.288 197.336L0 306.586H102.059H204.118L203.813 196.836L203.509 87.0861L200.753 77.5861C187.57 32.1371 150.098 1.62612 105.559 0.0761249C99.509 -0.134875 91.931 0.108126 88.718 0.615126ZM88.242 18.0711C78.513 19.9381 75.021 21.1251 65.719 25.7281C45.718 35.6261 30.448 52.9041 22.687 74.4191C17.065 90.0051 17.059 90.1251 17.059 187.196V276.586H20.024H22.99L23.292 184.836C23.594 93.2781 23.599 93.0691 25.837 85.0861C33.328 58.3611 50.774 38.0391 74.307 28.6261C84.371 24.6011 93.282 23.2611 106.418 23.7981C125.335 24.5701 139.495 30.6841 154.178 44.4201C163.424 53.0701 169.993 62.5421 174.622 73.8951C180.94 89.3931 181.051 91.3641 181.055 188.836L181.059 276.586H184.059H187.059V187.217C187.059 89.1471 187.032 88.6421 181.07 73.2381C176.259 60.8091 170.481 51.9021 161.126 42.4961C148.738 30.0421 136.118 22.7061 120.87 19.0981C111.516 16.8841 96.838 16.4221 88.242 18.0711ZM87.032 42.4691C77.099 45.1511 68.377 50.2781 60.467 58.0861C52.297 66.1511 46.781 75.3621 43.109 87.0731L40.597 95.0861L40.284 185.836L39.97 276.586H43.515H47.059V186.796C47.059 87.2601 46.775 91.9001 53.736 77.5861C58.711 67.3581 68.788 57.2691 79.059 52.2351C88.826 47.4481 99.765 45.7211 110.143 47.3271C131.094 50.5701 150.043 68.6911 155.444 90.6501C156.87 96.4441 157.059 107.725 157.059 186.9V276.586H160.594H164.129L163.82 185.836C163.473 84.0871 163.975 91.1231 155.894 74.6201C143.387 49.0791 113.768 35.2501 87.032 42.4691ZM93.092 65.1281C79.957 68.8001 69.247 80.0861 65.596 94.1041C64.269 99.1991 64.059 112.087 64.059 188.296V276.586H67.059H70.059L70.083 189.336C70.099 135.412 70.486 100.447 71.098 97.7951C73.413 87.7561 79.823 78.5671 87.749 73.9221C93.721 70.4221 104.487 69.5711 111.85 72.0171C117.828 74.0021 124.894 79.9191 128.356 85.8391C134.216 95.8561 134.059 93.0251 134.059 188.768V276.586H137.059H140.059V187.691C140.059 101.959 139.989 98.5691 138.082 92.3941C131.83 72.1541 111.668 59.9341 93.092 65.1281ZM95.843 89.1401C94.349 89.9511 91.874 92.7461 90.343 95.3501L87.559 100.086L87.283 188.336L87.007 276.586H102.054H117.101L116.83 188.336L116.559 100.086L114.269 95.7971C110.336 88.4321 102.418 85.5721 95.843 89.1401Z" fill="#DFAF4B"/>
<path d="M228.118 48L210.118 96L213.618 295H397.118V86.5L379.618 48L348.618 20L316.618 11.5L274.118 16L228.118 48Z" fill="#FFFFED"/>
<path fill-rule="evenodd" clip-rule="evenodd" d="M292.836 0.615126C251.331 7.16613 218.839 36.7541 207.345 78.4671L204.694 88.0861L204.406 197.336L204.118 306.586H306.177H408.236L407.931 196.836L407.627 87.0861L404.871 77.5861C391.688 32.1371 354.216 1.62612 309.677 0.0761249C303.627 -0.134875 296.049 0.108126 292.836 0.615126ZM292.36 18.0711C282.631 19.9381 279.139 21.1251 269.837 25.7281C249.836 35.6261 234.566 52.9041 226.805 74.4191C221.183 90.0051 221.177 90.1251 221.177 187.196V276.586H224.142H227.108L227.41 184.836C227.712 93.2781 227.717 93.0691 229.955 85.0861C237.446 58.3611 254.892 38.0391 278.425 28.6261C288.489 24.6011 297.4 23.2611 310.536 23.7981C329.453 24.5701 343.613 30.6841 358.296 44.4201C367.542 53.0701 374.111 62.5421 378.74 73.8951C385.058 89.3931 385.169 91.3641 385.173 188.836L385.177 276.586H388.177H391.177V187.217C391.177 89.1471 391.15 88.6421 385.188 73.2381C380.377 60.8091 374.599 51.9021 365.244 42.4961C352.856 30.0421 340.236 22.7061 324.988 19.0981C315.634 16.8841 300.956 16.4221 292.36 18.0711ZM291.15 42.4691C281.217 45.1511 272.495 50.2781 264.585 58.0861C256.415 66.1511 250.899 75.3621 247.227 87.0731L244.715 95.0861L244.402 185.836L244.088 276.586H247.633H251.177V186.796C251.177 87.2601 250.893 91.9001 257.854 77.5861C262.829 67.3581 272.906 57.2691 283.177 52.2351C292.944 47.4481 303.883 45.7211 314.261 47.3271C335.212 50.5701 354.161 68.6911 359.562 90.6501C360.988 96.4441 361.177 107.725 361.177 186.9V276.586H364.712H368.247L367.938 185.836C367.591 84.0871 368.093 91.1231 360.012 74.6201C347.505 49.0791 317.886 35.2501 291.15 42.4691ZM297.21 65.1281C284.075 68.8001 273.365 80.0861 269.714 94.1041C268.387 99.1991 268.177 112.087 268.177 188.296V276.586H271.177H274.177L274.201 189.336C274.217 135.412 274.604 100.447 275.216 97.7951C277.531 87.7561 283.941 78.5671 291.867 73.9221C297.839 70.4221 308.605 69.5711 315.968 72.0171C321.946 74.0021 329.012 79.9191 332.474 85.8391C338.334 95.8561 338.177 93.0251 338.177 188.768V276.586H341.177H344.177V187.691C344.177 101.959 344.107 98.5691 342.2 92.3941C335.948 72.1541 315.786 59.9341 297.21 65.1281ZM299.961 89.1401C298.467 89.9511 295.992 92.7461 294.461 95.3501L291.677 100.086L291.401 188.336L291.125 276.586H306.172H321.219L320.948 188.336L320.677 100.086L318.387 95.7971C314.454 88.4321 306.536 85.5721 299.961 89.1401Z" fill="#DFAF4B"/>
<path d="M432.236 48L414.236 96L417.736 295H601.236V86.5L583.736 48L552.736 20L520.736 11.5L478.236 16L432.236 48Z" fill="#FFFFED"/>
<path fill-rule="evenodd" clip-rule="evenodd" d="M496.954 0.615126C455.449 7.16613 422.957 36.7541 411.463 78.4671L408.812 88.0861L408.524 197.336L408.236 306.586H510.295H612.354L612.049 196.836L611.745 87.0861L608.989 77.5861C595.806 32.1371 558.334 1.62612 513.795 0.0761249C507.745 -0.134875 500.167 0.108126 496.954 0.615126ZM496.478 18.0711C486.749 19.9381 483.257 21.1251 473.955 25.7281C453.954 35.6261 438.684 52.9041 430.923 74.4191C425.301 90.0051 425.295 90.1251 425.295 187.196V276.586H428.26H431.226L431.528 184.836C431.83 93.2781 431.835 93.0691 434.073 85.0861C441.564 58.3611 459.01 38.0391 482.543 28.6261C492.607 24.6011 501.518 23.2611 514.654 23.7981C533.571 24.5701 547.731 30.6841 562.414 44.4201C571.66 53.0701 578.229 62.5421 582.858 73.8951C589.176 89.3931 589.287 91.3641 589.291 188.836L589.295 276.586H592.295H595.295V187.217C595.295 89.1471 595.268 88.6421 589.306 73.2381C584.495 60.8091 578.717 51.9021 569.362 42.4961C556.974 30.0421 544.354 22.7061 529.106 19.0981C519.752 16.8841 505.074 16.4221 496.478 18.0711ZM495.268 42.4691C485.335 45.1511 476.613 50.2781 468.703 58.0861C460.533 66.1511 455.017 75.3621 451.345 87.0731L448.833 95.0861L448.52 185.836L448.206 276.586H451.751H455.295V186.796C455.295 87.2601 455.011 91.9001 461.972 77.5861C466.947 67.3581 477.024 57.2691 487.295 52.2351C497.062 47.4481 508.001 45.7211 518.379 47.3271C539.33 50.5701 558.279 68.6911 563.68 90.6501C565.106 96.4441 565.295 107.725 565.295 186.9V276.586H568.83H572.365L572.056 185.836C571.709 84.0871 572.211 91.1231 564.13 74.6201C551.623 49.0791 522.004 35.2501 495.268 42.4691ZM501.328 65.1281C488.193 68.8001 477.483 80.0861 473.832 94.1041C472.505 99.1991 472.295 112.087 472.295 188.296V276.586H475.295H478.295L478.319 189.336C478.335 135.412 478.722 100.447 479.334 97.7951C481.649 87.7561 488.059 78.5671 495.985 73.9221C501.957 70.4221 512.723 69.5711 520.086 72.0171C526.064 74.0021 533.13 79.9191 536.592 85.8391C542.452 95.8561 542.295 93.0251 542.295 188.768V276.586H545.295H548.295V187.691C548.295 101.959 548.225 98.5691 546.318 92.3941C540.066 72.1541 519.904 59.9341 501.328 65.1281ZM504.079 89.1401C502.585 89.9511 500.11 92.7461 498.579 95.3501L495.795 100.086L495.519 188.336L495.243 276.586H510.29H525.337L525.066 188.336L524.795 100.086L522.505 95.7971C518.572 88.4321 510.654 85.5721 504.079 89.1401Z" fill="#DFAF4B"/>
<path d="M636.354 48L618.354 96L621.854 295H805.354V86.5L787.854 48L756.854 20L724.854 11.5L682.354 16L636.354 48Z" fill="#FFFFED"/>
<path fill-rule="evenodd" clip-rule="evenodd" d="M701.072 0.615126C659.567 7.16613 627.075 36.7541 615.581 78.4671L612.93 88.0861L612.642 197.336L612.354 306.586H714.413H816.472L816.167 196.836L815.863 87.0861L813.107 77.5861C799.924 32.1371 762.452 1.62612 717.913 0.0761249C711.863 -0.134875 704.285 0.108126 701.072 0.615126ZM700.596 18.0711C690.867 19.9381 687.375 21.1251 678.073 25.7281C658.072 35.6261 642.802 52.9041 635.041 74.4191C629.419 90.0051 629.413 90.1251 629.413 187.196V276.586H632.378H635.344L635.646 184.836C635.948 93.2781 635.953 93.0691 638.191 85.0861C645.682 58.3611 663.128 38.0391 686.661 28.6261C696.725 24.6011 705.636 23.2611 718.772 23.7981C737.689 24.5701 751.849 30.6841 766.532 44.4201C775.778 53.0701 782.347 62.5421 786.976 73.8951C793.294 89.3931 793.405 91.3641 793.409 188.836L793.413 276.586H796.413H799.413V187.217C799.413 89.1471 799.386 88.6421 793.424 73.2381C788.613 60.8091 782.835 51.9021 773.48 42.4961C761.092 30.0421 748.472 22.7061 733.224 19.0981C723.87 16.8841 709.192 16.4221 700.596 18.0711ZM699.386 42.4691C689.453 45.1511 680.731 50.2781 672.821 58.0861C664.651 66.1511 659.135 75.3621 655.463 87.0731L652.951 95.0861L652.638 185.836L652.324 276.586H655.869H659.413V186.796C659.413 87.2601 659.129 91.9001 666.09 77.5861C671.065 67.3581 681.142 57.2691 691.413 52.2351C701.18 47.4481 712.119 45.7211 722.497 47.3271C743.448 50.5701 762.397 68.6911 767.798 90.6501C769.224 96.4441 769.413 107.725 769.413 186.9V276.586H772.948H776.483L776.174 185.836C775.827 84.0871 776.329 91.1231 768.248 74.6201C755.741 49.0791 726.122 35.2501 699.386 42.4691ZM705.446 65.1281C692.311 68.8001 681.601 80.0861 677.95 94.1041C676.623 99.1991 676.413 112.087 676.413 188.296V276.586H679.413H682.413L682.437 189.336C682.453 135.412 682.84 100.447 683.452 97.7951C685.767 87.7561 692.177 78.5671 700.103 73.9221C706.075 70.4221 716.841 69.5711 724.204 72.0171C730.182 74.0021 737.248 79.9191 740.71 85.8391C746.57 95.8561 746.413 93.0251 746.413 188.768V276.586H749.413H752.413V187.691C752.413 101.959 752.343 98.5691 750.436 92.3941C744.184 72.1541 724.022 59.9341 705.446 65.1281ZM708.197 89.1401C706.703 89.9511 704.228 92.7461 702.697 95.3501L699.913 100.086L699.637 188.336L699.361 276.586H714.408H729.455L729.184 188.336L728.913 100.086L726.623 95.7971C722.69 88.4321 714.772 85.5721 708.197 89.1401Z" fill="#DFAF4B"/>
<path d="M840.472 48L822.472 96L825.972 295H1009.47V86.5L991.972 48L960.972 20L928.972 11.5L886.472 16L840.472 48Z" fill="#FFFFED"/>
<path fill-rule="evenodd" clip-rule="evenodd" d="M905.19 0.615126C863.685 7.16613 831.193 36.7541 819.699 78.4671L817.048 88.0861L816.76 197.336L816.472 306.586H918.531H1020.59L1020.29 196.836L1019.98 87.0861L1017.23 77.5861C1004.04 32.1371 966.57 1.62612 922.031 0.0761249C915.981 -0.134875 908.403 0.108126 905.19 0.615126ZM904.714 18.0711C894.985 19.9381 891.493 21.1251 882.191 25.7281C862.19 35.6261 846.92 52.9041 839.159 74.4191C833.537 90.0051 833.531 90.1251 833.531 187.196V276.586H836.496H839.462L839.764 184.836C840.066 93.2781 840.071 93.0691 842.309 85.0861C849.8 58.3611 867.246 38.0391 890.779 28.6261C900.843 24.6011 909.754 23.2611 922.89 23.7981C941.807 24.5701 955.967 30.6841 970.65 44.4201C979.896 53.0701 986.465 62.5421 991.094 73.8951C997.412 89.3931 997.523 91.3641 997.527 188.836L997.531 276.586H1000.53H1003.53V187.217C1003.53 89.1471 1003.5 88.6421 997.542 73.2381C992.731 60.8091 986.953 51.9021 977.598 42.4961C965.21 30.0421 952.59 22.7061 937.342 19.0981C927.988 16.8841 913.31 16.4221 904.714 18.0711ZM903.504 42.4691C893.571 45.1511 884.849 50.2781 876.939 58.0861C868.769 66.1511 863.253 75.3621 859.581 87.0731L857.069 95.0861L856.756 185.836L856.442 276.586H859.987H863.531V186.796C863.531 87.2601 863.247 91.9001 870.208 77.5861C875.183 67.3581 885.26 57.2691 895.531 52.2351C905.298 47.4481 916.237 45.7211 926.615 47.3271C947.566 50.5701 966.515 68.6911 971.916 90.6501C973.342 96.4441 973.531 107.725 973.531 186.9V276.586H977.066H980.601L980.292 185.836C979.945 84.0871 980.447 91.1231 972.366 74.6201C959.859 49.0791 930.24 35.2501 903.504 42.4691ZM909.564 65.1281C896.429 68.8001 885.719 80.0861 882.068 94.1041C880.741 99.1991 880.531 112.087 880.531 188.296V276.586H883.531H886.531L886.555 189.336C886.571 135.412 886.958 100.447 887.57 97.7951C889.885 87.7561 896.295 78.5671 904.221 73.9221C910.193 70.4221 920.959 69.5711 928.322 72.0171C934.3 74.0021 941.366 79.9191 944.828 85.8391C950.688 95.8561 950.531 93.0251 950.531 188.768V276.586H953.531H956.531V187.691C956.531 101.959 956.461 98.5691 954.554 92.3941C948.302 72.1541 928.14 59.9341 909.564 65.1281ZM912.315 89.1401C910.821 89.9511 908.346 92.7461 906.815 95.3501L904.031 100.086L903.755 188.336L903.479 276.586H918.526H933.573L933.302 188.336L933.031 100.086L930.741 95.7971C926.808 88.4321 918.89 85.5721 912.315 89.1401Z" fill="#DFAF4B"/>
<path d="M1044.59 48L1026.59 96L1030.09 295H1213.59V86.5L1196.09 48L1165.09 20L1133.09 11.5L1090.59 16L1044.59 48Z" fill="#FFFFED"/>
<path fill-rule="evenodd" clip-rule="evenodd" d="M1109.31 0.615126C1067.8 7.16613 1035.31 36.7541 1023.82 78.4671L1021.17 88.0861L1020.88 197.336L1020.59 306.586H1122.65H1224.71L1224.4 196.836L1224.1 87.0861L1221.34 77.5861C1208.16 32.1371 1170.69 1.62612 1126.15 0.0761249C1120.1 -0.134875 1112.52 0.108126 1109.31 0.615126ZM1108.83 18.0711C1099.1 19.9381 1095.61 21.1251 1086.31 25.7281C1066.31 35.6261 1051.04 52.9041 1043.28 74.4191C1037.66 90.0051 1037.65 90.1251 1037.65 187.196V276.586H1040.61H1043.58L1043.88 184.836C1044.18 93.2781 1044.19 93.0691 1046.43 85.0861C1053.92 58.3611 1071.36 38.0391 1094.9 28.6261C1104.96 24.6011 1113.87 23.2611 1127.01 23.7981C1145.93 24.5701 1160.09 30.6841 1174.77 44.4201C1184.01 53.0701 1190.58 62.5421 1195.21 73.8951C1201.53 89.3931 1201.64 91.3641 1201.65 188.836L1201.65 276.586H1204.65H1207.65V187.217C1207.65 89.1471 1207.62 88.6421 1201.66 73.2381C1196.85 60.8091 1191.07 51.9021 1181.72 42.4961C1169.33 30.0421 1156.71 22.7061 1141.46 19.0981C1132.11 16.8841 1117.43 16.4221 1108.83 18.0711ZM1107.62 42.4691C1097.69 45.1511 1088.97 50.2781 1081.06 58.0861C1072.89 66.1511 1067.37 75.3621 1063.7 87.0731L1061.19 95.0861L1060.87 185.836L1060.56 276.586H1064.11H1067.65V186.796C1067.65 87.2601 1067.37 91.9001 1074.33 77.5861C1079.3 67.3581 1089.38 57.2691 1099.65 52.2351C1109.42 47.4481 1120.36 45.7211 1130.73 47.3271C1151.68 50.5701 1170.63 68.6911 1176.03 90.6501C1177.46 96.4441 1177.65 107.725 1177.65 186.9V276.586H1181.18H1184.72L1184.41 185.836C1184.06 84.0871 1184.57 91.1231 1176.48 74.6201C1163.98 49.0791 1134.36 35.2501 1107.62 42.4691ZM1113.68 65.1281C1100.55 68.8001 1089.84 80.0861 1086.19 94.1041C1084.86 99.1991 1084.65 112.087 1084.65 188.296V276.586H1087.65H1090.65L1090.67 189.336C1090.69 135.412 1091.08 100.447 1091.69 97.7951C1094 87.7561 1100.41 78.5671 1108.34 73.9221C1114.31 70.4221 1125.08 69.5711 1132.44 72.0171C1138.42 74.0021 1145.48 79.9191 1148.95 85.8391C1154.81 95.8561 1154.65 93.0251 1154.65 188.768V276.586H1157.65H1160.65V187.691C1160.65 101.959 1160.58 98.5691 1158.67 92.3941C1152.42 72.1541 1132.26 59.9341 1113.68 65.1281ZM1116.43 89.1401C1114.94 89.9511 1112.46 92.7461 1110.93 95.3501L1108.15 100.086L1107.87 188.336L1107.6 276.586H1122.64H1137.69L1137.42 188.336L1137.15 100.086L1134.86 95.7971C1130.93 88.4321 1123.01 85.5721 1116.43 89.1401Z" fill="#DFAF4B"/>
<path d="M1248.71 48L1230.71 96L1234.21 295H1417.71V86.5L1400.21 48L1369.21 20L1337.21 11.5L1294.71 16L1248.71 48Z" fill="#FFFFED"/>
<path fill-rule="evenodd" clip-rule="evenodd" d="M1313.43 0.615126C1271.92 7.16613 1239.43 36.7541 1227.94 78.4671L1225.28 88.0861L1225 197.336L1224.71 306.586H1326.77H1428.83L1428.52 196.836L1428.22 87.0861L1425.46 77.5861C1412.28 32.1371 1374.81 1.62612 1330.27 0.0761249C1324.22 -0.134875 1316.64 0.108126 1313.43 0.615126ZM1312.95 18.0711C1303.22 19.9381 1299.73 21.1251 1290.43 25.7281C1270.43 35.6261 1255.16 52.9041 1247.4 74.4191C1241.77 90.0051 1241.77 90.1251 1241.77 187.196V276.586H1244.73H1247.7L1248 184.836C1248.3 93.2781 1248.31 93.0691 1250.55 85.0861C1258.04 58.3611 1275.48 38.0391 1299.02 28.6261C1309.08 24.6011 1317.99 23.2611 1331.13 23.7981C1350.04 24.5701 1364.2 30.6841 1378.89 44.4201C1388.13 53.0701 1394.7 62.5421 1399.33 73.8951C1405.65 89.3931 1405.76 91.3641 1405.76 188.836L1405.77 276.586H1408.77H1411.77V187.217C1411.77 89.1471 1411.74 88.6421 1405.78 73.2381C1400.97 60.8091 1395.19 51.9021 1385.83 42.4961C1373.45 30.0421 1360.83 22.7061 1345.58 19.0981C1336.22 16.8841 1321.55 16.4221 1312.95 18.0711ZM1311.74 42.4691C1301.81 45.1511 1293.09 50.2781 1285.18 58.0861C1277.01 66.1511 1271.49 75.3621 1267.82 87.0731L1265.31 95.0861L1264.99 185.836L1264.68 276.586H1268.22H1271.77V186.796C1271.77 87.2601 1271.48 91.9001 1278.44 77.5861C1283.42 67.3581 1293.5 57.2691 1303.77 52.2351C1313.53 47.4481 1324.47 45.7211 1334.85 47.3271C1355.8 50.5701 1374.75 68.6911 1380.15 90.6501C1381.58 96.4441 1381.77 107.725 1381.77 186.9V276.586H1385.3H1388.84L1388.53 185.836C1388.18 84.0871 1388.68 91.1231 1380.6 74.6201C1368.1 49.0791 1338.48 35.2501 1311.74 42.4691ZM1317.8 65.1281C1304.67 68.8001 1293.96 80.0861 1290.3 94.1041C1288.98 99.1991 1288.77 112.087 1288.77 188.296V276.586H1291.77H1294.77L1294.79 189.336C1294.81 135.412 1295.19 100.447 1295.81 97.7951C1298.12 87.7561 1304.53 78.5671 1312.46 73.9221C1318.43 70.4221 1329.2 69.5711 1336.56 72.0171C1342.54 74.0021 1349.6 79.9191 1353.06 85.8391C1358.92 95.8561 1358.77 93.0251 1358.77 188.768V276.586H1361.77H1364.77V187.691C1364.77 101.959 1364.7 98.5691 1362.79 92.3941C1356.54 72.1541 1336.38 59.9341 1317.8 65.1281ZM1320.55 89.1401C1319.06 89.9511 1316.58 92.7461 1315.05 95.3501L1312.27 100.086L1311.99 188.336L1311.72 276.586H1326.76H1341.81L1341.54 188.336L1341.27 100.086L1338.98 95.7971C1335.04 88.4321 1327.13 85.5721 1320.55 89.1401Z" fill="#DFAF4B"/>
<path d="M1452.83 48L1434.83 96L1438.33 295H1621.83V86.5L1604.33 48L1573.33 20L1541.33 11.5L1498.83 16L1452.83 48Z" fill="#FFFFED"/>
<path fill-rule="evenodd" clip-rule="evenodd" d="M1517.54 0.615126C1476.04 7.16613 1443.55 36.7541 1432.05 78.4671L1429.4 88.0861L1429.11 197.336L1428.83 306.586H1530.89H1632.94L1632.64 196.836L1632.34 87.0861L1629.58 77.5861C1616.4 32.1371 1578.92 1.62612 1534.39 0.0761249C1528.34 -0.134875 1520.76 0.108126 1517.54 0.615126ZM1517.07 18.0711C1507.34 19.9381 1503.85 21.1251 1494.55 25.7281C1474.54 35.6261 1459.27 52.9041 1451.51 74.4191C1445.89 90.0051 1445.89 90.1251 1445.89 187.196V276.586H1448.85H1451.82L1452.12 184.836C1452.42 93.2781 1452.43 93.0691 1454.66 85.0861C1462.15 58.3611 1479.6 38.0391 1503.13 28.6261C1513.2 24.6011 1522.11 23.2611 1535.24 23.7981C1554.16 24.5701 1568.32 30.6841 1583 44.4201C1592.25 53.0701 1598.82 62.5421 1603.45 73.8951C1609.77 89.3931 1609.88 91.3641 1609.88 188.836L1609.89 276.586H1612.89H1615.89V187.217C1615.89 89.1471 1615.86 88.6421 1609.9 73.2381C1605.09 60.8091 1599.31 51.9021 1589.95 42.4961C1577.56 30.0421 1564.94 22.7061 1549.7 19.0981C1540.34 16.8841 1525.66 16.4221 1517.07 18.0711ZM1515.86 42.4691C1505.93 45.1511 1497.2 50.2781 1489.29 58.0861C1481.12 66.1511 1475.61 75.3621 1471.94 87.0731L1469.42 95.0861L1469.11 185.836L1468.8 276.586H1472.34H1475.89V186.796C1475.89 87.2601 1475.6 91.9001 1482.56 77.5861C1487.54 67.3581 1497.61 57.2691 1507.89 52.2351C1517.65 47.4481 1528.59 45.7211 1538.97 47.3271C1559.92 50.5701 1578.87 68.6911 1584.27 90.6501C1585.7 96.4441 1585.89 107.725 1585.89 186.9V276.586H1589.42H1592.96L1592.65 185.836C1592.3 84.0871 1592.8 91.1231 1584.72 74.6201C1572.21 49.0791 1542.59 35.2501 1515.86 42.4691ZM1521.92 65.1281C1508.78 68.8001 1498.07 80.0861 1494.42 94.1041C1493.1 99.1991 1492.89 112.087 1492.89 188.296V276.586H1495.89H1498.89L1498.91 189.336C1498.93 135.412 1499.31 100.447 1499.92 97.7951C1502.24 87.7561 1508.65 78.5671 1516.58 73.9221C1522.55 70.4221 1533.31 69.5711 1540.68 72.0171C1546.65 74.0021 1553.72 79.9191 1557.18 85.8391C1563.04 95.8561 1562.89 93.0251 1562.89 188.768V276.586H1565.89H1568.89V187.691C1568.89 101.959 1568.82 98.5691 1566.91 92.3941C1560.66 72.1541 1540.49 59.9341 1521.92 65.1281ZM1524.67 89.1401C1523.18 89.9511 1520.7 92.7461 1519.17 95.3501L1516.39 100.086L1516.11 188.336L1515.83 276.586H1530.88H1545.93L1545.66 188.336L1545.39 100.086L1543.1 95.7971C1539.16 88.4321 1531.24 85.5721 1524.67 89.1401Z" fill="#DFAF4B"/>
<path d="M1656.94 48L1638.94 96L1642.44 295H1825.94V86.5L1808.44 48L1777.44 20L1745.44 11.5L1702.94 16L1656.94 48Z" fill="#FFFFED"/>
<path fill-rule="evenodd" clip-rule="evenodd" d="M1721.66 0.615126C1680.16 7.16613 1647.67 36.7541 1636.17 78.4671L1633.52 88.0861L1633.23 197.336L1632.94 306.586H1735H1837.06L1836.76 196.836L1836.45 87.0861L1833.7 77.5861C1820.51 32.1371 1783.04 1.62612 1738.5 0.0761249C1732.45 -0.134875 1724.88 0.108126 1721.66 0.615126ZM1721.19 18.0711C1711.46 19.9381 1707.97 21.1251 1698.66 25.7281C1678.66 35.6261 1663.39 52.9041 1655.63 74.4191C1650.01 90.0051 1650 90.1251 1650 187.196V276.586H1652.97H1655.93L1656.24 184.836C1656.54 93.2781 1656.54 93.0691 1658.78 85.0861C1666.27 58.3611 1683.72 38.0391 1707.25 28.6261C1717.32 24.6011 1726.23 23.2611 1739.36 23.7981C1758.28 24.5701 1772.44 30.6841 1787.12 44.4201C1796.37 53.0701 1802.94 62.5421 1807.57 73.8951C1813.88 89.3931 1814 91.3641 1814 188.836L1814 276.586H1817H1820V187.217C1820 89.1471 1819.98 88.6421 1814.01 73.2381C1809.2 60.8091 1803.43 51.9021 1794.07 42.4961C1781.68 30.0421 1769.06 22.7061 1753.81 19.0981C1744.46 16.8841 1729.78 16.4221 1721.19 18.0711ZM1719.98 42.4691C1710.04 45.1511 1701.32 50.2781 1693.41 58.0861C1685.24 66.1511 1679.73 75.3621 1676.05 87.0731L1673.54 95.0861L1673.23 185.836L1672.91 276.586H1676.46H1680V186.796C1680 87.2601 1679.72 91.9001 1686.68 77.5861C1691.66 67.3581 1701.73 57.2691 1712 52.2351C1721.77 47.4481 1732.71 45.7211 1743.09 47.3271C1764.04 50.5701 1782.99 68.6911 1788.39 90.6501C1789.81 96.4441 1790 107.725 1790 186.9V276.586H1793.54H1797.07L1796.76 185.836C1796.42 84.0871 1796.92 91.1231 1788.84 74.6201C1776.33 49.0791 1746.71 35.2501 1719.98 42.4691ZM1726.04 65.1281C1712.9 68.8001 1702.19 80.0861 1698.54 94.1041C1697.21 99.1991 1697 112.087 1697 188.296V276.586H1700H1703L1703.03 189.336C1703.04 135.412 1703.43 100.447 1704.04 97.7951C1706.36 87.7561 1712.77 78.5671 1720.69 73.9221C1726.67 70.4221 1737.43 69.5711 1744.79 72.0171C1750.77 74.0021 1757.84 79.9191 1761.3 85.8391C1767.16 95.8561 1767 93.0251 1767 188.768V276.586H1770H1773V187.691C1773 101.959 1772.93 98.5691 1771.03 92.3941C1764.77 72.1541 1744.61 59.9341 1726.04 65.1281ZM1728.79 89.1401C1727.29 89.9511 1724.82 92.7461 1723.29 95.3501L1720.5 100.086L1720.23 188.336L1719.95 276.586H1735H1750.05L1749.77 188.336L1749.5 100.086L1747.21 95.7971C1743.28 88.4321 1735.36 85.5721 1728.79 89.1401Z" fill="#DFAF4B"/>
<path d="M1861.06 48L1843.06 96L1846.56 295H2030.06V86.5L2012.56 48L1981.56 20L1949.56 11.5L1907.06 16L1861.06 48Z" fill="#FFFFED"/>
<path fill-rule="evenodd" clip-rule="evenodd" d="M1925.78 0.615126C1884.28 7.16613 1851.78 36.7541 1840.29 78.4671L1837.64 88.0861L1837.35 197.336L1837.06 306.586H1939.12H2041.18L2040.88 196.836L2040.57 87.0861L2037.82 77.5861C2024.63 32.1371 1987.16 1.62612 1942.62 0.0761249C1936.57 -0.134875 1928.99 0.108126 1925.78 0.615126ZM1925.3 18.0711C1915.58 19.9381 1912.08 21.1251 1902.78 25.7281C1882.78 35.6261 1867.51 52.9041 1859.75 74.4191C1854.13 90.0051 1854.12 90.1251 1854.12 187.196V276.586H1857.09H1860.05L1860.35 184.836C1860.66 93.2781 1860.66 93.0691 1862.9 85.0861C1870.39 58.3611 1887.84 38.0391 1911.37 28.6261C1921.43 24.6011 1930.34 23.2611 1943.48 23.7981C1962.4 24.5701 1976.56 30.6841 1991.24 44.4201C2000.49 53.0701 2007.06 62.5421 2011.68 73.8951C2018 89.3931 2018.11 91.3641 2018.12 188.836L2018.12 276.586H2021.12H2024.12V187.217C2024.12 89.1471 2024.09 88.6421 2018.13 73.2381C2013.32 60.8091 2007.54 51.9021 1998.19 42.4961C1985.8 30.0421 1973.18 22.7061 1957.93 19.0981C1948.58 16.8841 1933.9 16.4221 1925.3 18.0711ZM1924.09 42.4691C1914.16 45.1511 1905.44 50.2781 1897.53 58.0861C1889.36 66.1511 1883.84 75.3621 1880.17 87.0731L1877.66 95.0861L1877.35 185.836L1877.03 276.586H1880.58H1884.12V186.796C1884.12 87.2601 1883.84 91.9001 1890.8 77.5861C1895.77 67.3581 1905.85 57.2691 1916.12 52.2351C1925.89 47.4481 1936.83 45.7211 1947.21 47.3271C1968.16 50.5701 1987.11 68.6911 1992.51 90.6501C1993.93 96.4441 1994.12 107.725 1994.12 186.9V276.586H1997.66H2001.19L2000.88 185.836C2000.54 84.0871 2001.04 91.1231 1992.96 74.6201C1980.45 49.0791 1950.83 35.2501 1924.09 42.4691ZM1930.15 65.1281C1917.02 68.8001 1906.31 80.0861 1902.66 94.1041C1901.33 99.1991 1901.12 112.087 1901.12 188.296V276.586H1904.12H1907.12L1907.15 189.336C1907.16 135.412 1907.55 100.447 1908.16 97.7951C1910.48 87.7561 1916.89 78.5671 1924.81 73.9221C1930.78 70.4221 1941.55 69.5711 1948.91 72.0171C1954.89 74.0021 1961.96 79.9191 1965.42 85.8391C1971.28 95.8561 1971.12 93.0251 1971.12 188.768V276.586H1974.12H1977.12V187.691C1977.12 101.959 1977.05 98.5691 1975.14 92.3941C1968.89 72.1541 1948.73 59.9341 1930.15 65.1281ZM1932.91 89.1401C1931.41 89.9511 1928.94 92.7461 1927.41 95.3501L1924.62 100.086L1924.35 188.336L1924.07 276.586H1939.12H1954.16L1953.89 188.336L1953.62 100.086L1951.33 95.7971C1947.4 88.4321 1939.48 85.5721 1932.91 89.1401Z" fill="#DFAF4B"/>
<path d="M2065.18 48L2047.18 96L2050.68 295H2234.18V86.5L2216.68 48L2185.68 20L2153.68 11.5L2111.18 16L2065.18 48Z" fill="#FFFFED"/>
<path fill-rule="evenodd" clip-rule="evenodd" d="M2129.9 0.615126C2088.39 7.16613 2055.9 36.7541 2044.41 78.4671L2041.76 88.0861L2041.47 197.336L2041.18 306.586H2143.24H2245.3L2244.99 196.836L2244.69 87.0861L2241.93 77.5861C2228.75 32.1371 2191.28 1.62612 2146.74 0.0761249C2140.69 -0.134875 2133.11 0.108126 2129.9 0.615126ZM2129.42 18.0711C2119.69 19.9381 2116.2 21.1251 2106.9 25.7281C2086.9 35.6261 2071.63 52.9041 2063.87 74.4191C2058.25 90.0051 2058.24 90.1251 2058.24 187.196V276.586H2061.2H2064.17L2064.47 184.836C2064.77 93.2781 2064.78 93.0691 2067.02 85.0861C2074.51 58.3611 2091.95 38.0391 2115.49 28.6261C2125.55 24.6011 2134.46 23.2611 2147.6 23.7981C2166.52 24.5701 2180.68 30.6841 2195.36 44.4201C2204.6 53.0701 2211.17 62.5421 2215.8 73.8951C2222.12 89.3931 2222.23 91.3641 2222.24 188.836L2222.24 276.586H2225.24H2228.24V187.217C2228.24 89.1471 2228.21 88.6421 2222.25 73.2381C2217.44 60.8091 2211.66 51.9021 2202.31 42.4961C2189.92 30.0421 2177.3 22.7061 2162.05 19.0981C2152.7 16.8841 2138.02 16.4221 2129.42 18.0711ZM2128.21 42.4691C2118.28 45.1511 2109.56 50.2781 2101.65 58.0861C2093.48 66.1511 2087.96 75.3621 2084.29 87.0731L2081.78 95.0861L2081.46 185.836L2081.15 276.586H2084.7H2088.24V186.796C2088.24 87.2601 2087.96 91.9001 2094.92 77.5861C2099.89 67.3581 2109.97 57.2691 2120.24 52.2351C2130.01 47.4481 2140.95 45.7211 2151.32 47.3271C2172.27 50.5701 2191.22 68.6911 2196.62 90.6501C2198.05 96.4441 2198.24 107.725 2198.24 186.9V276.586H2201.77H2205.31L2205 185.836C2204.65 84.0871 2205.16 91.1231 2197.07 74.6201C2184.57 49.0791 2154.95 35.2501 2128.21 42.4691ZM2134.27 65.1281C2121.14 68.8001 2110.43 80.0861 2106.78 94.1041C2105.45 99.1991 2105.24 112.087 2105.24 188.296V276.586H2108.24H2111.24L2111.26 189.336C2111.28 135.412 2111.67 100.447 2112.28 97.7951C2114.59 87.7561 2121 78.5671 2128.93 73.9221C2134.9 70.4221 2145.67 69.5711 2153.03 72.0171C2159.01 74.0021 2166.07 79.9191 2169.54 85.8391C2175.4 95.8561 2175.24 93.0251 2175.24 188.768V276.586H2178.24H2181.24V187.691C2181.24 101.959 2181.17 98.5691 2179.26 92.3941C2173.01 72.1541 2152.85 59.9341 2134.27 65.1281ZM2137.02 89.1401C2135.53 89.9511 2133.05 92.7461 2131.52 95.3501L2128.74 100.086L2128.46 188.336L2128.19 276.586H2143.23H2158.28L2158.01 188.336L2157.74 100.086L2155.45 95.7971C2151.52 88.4321 2143.6 85.5721 2137.02 89.1401Z" fill="#DFAF4B"/>
<path d="M2269.3 48L2251.3 96L2254.8 295H2438.3V86.5L2420.8 48L2389.8 20L2357.8 11.5L2315.3 16L2269.3 48Z" fill="#FFFFED"/>
<path fill-rule="evenodd" clip-rule="evenodd" d="M2334.02 0.615126C2292.51 7.16613 2260.02 36.7541 2248.53 78.4671L2245.87 88.0861L2245.59 197.336L2245.3 306.586H2347.36H2449.42L2449.11 196.836L2448.81 87.0861L2446.05 77.5861C2432.87 32.1371 2395.4 1.62612 2350.86 0.0761249C2344.81 -0.134875 2337.23 0.108126 2334.02 0.615126ZM2333.54 18.0711C2323.81 19.9381 2320.32 21.1251 2311.02 25.7281C2291.02 35.6261 2275.75 52.9041 2267.99 74.4191C2262.36 90.0051 2262.36 90.1251 2262.36 187.196V276.586H2265.32H2268.29L2268.59 184.836C2268.89 93.2781 2268.9 93.0691 2271.14 85.0861C2278.63 58.3611 2296.07 38.0391 2319.61 28.6261C2329.67 24.6011 2338.58 23.2611 2351.72 23.7981C2370.63 24.5701 2384.79 30.6841 2399.48 44.4201C2408.72 53.0701 2415.29 62.5421 2419.92 73.8951C2426.24 89.3931 2426.35 91.3641 2426.35 188.836L2426.36 276.586H2429.36H2432.36V187.217C2432.36 89.1471 2432.33 88.6421 2426.37 73.2381C2421.56 60.8091 2415.78 51.9021 2406.42 42.4961C2394.04 30.0421 2381.42 22.7061 2366.17 19.0981C2356.81 16.8841 2342.14 16.4221 2333.54 18.0711ZM2332.33 42.4691C2322.4 45.1511 2313.68 50.2781 2305.77 58.0861C2297.6 66.1511 2292.08 75.3621 2288.41 87.0731L2285.9 95.0861L2285.58 185.836L2285.27 276.586H2288.81H2292.36V186.796C2292.36 87.2601 2292.07 91.9001 2299.03 77.5861C2304.01 67.3581 2314.09 57.2691 2324.36 52.2351C2334.12 47.4481 2345.06 45.7211 2355.44 47.3271C2376.39 50.5701 2395.34 68.6911 2400.74 90.6501C2402.17 96.4441 2402.36 107.725 2402.36 186.9V276.586H2405.89H2409.43L2409.12 185.836C2408.77 84.0871 2409.27 91.1231 2401.19 74.6201C2388.69 49.0791 2359.07 35.2501 2332.33 42.4691ZM2338.39 65.1281C2325.26 68.8001 2314.55 80.0861 2310.89 94.1041C2309.57 99.1991 2309.36 112.087 2309.36 188.296V276.586H2312.36H2315.36L2315.38 189.336C2315.4 135.412 2315.78 100.447 2316.4 97.7951C2318.71 87.7561 2325.12 78.5671 2333.05 73.9221C2339.02 70.4221 2349.79 69.5711 2357.15 72.0171C2363.13 74.0021 2370.19 79.9191 2373.65 85.8391C2379.51 95.8561 2379.36 93.0251 2379.36 188.768V276.586H2382.36H2385.36V187.691C2385.36 101.959 2385.29 98.5691 2383.38 92.3941C2377.13 72.1541 2356.97 59.9341 2338.39 65.1281ZM2341.14 89.1401C2339.65 89.9511 2337.17 92.7461 2335.64 95.3501L2332.86 100.086L2332.58 188.336L2332.31 276.586H2347.35H2362.4L2362.13 188.336L2361.86 100.086L2359.57 95.7971C2355.63 88.4321 2347.72 85.5721 2341.14 89.1401Z" fill="#DFAF4B"/>
<path d="M2473.42 48L2455.42 96L2458.92 295H2642.42V86.5L2624.92 48L2593.92 20L2561.92 11.5L2519.42 16L2473.42 48Z" fill="#FFFFED"/>
<path fill-rule="evenodd" clip-rule="evenodd" d="M2538.13 0.615126C2496.63 7.16613 2464.14 36.7541 2452.64 78.4671L2449.99 88.0861L2449.7 197.336L2449.42 306.586H2551.48H2653.53L2653.23 196.836L2652.93 87.0861L2650.17 77.5861C2636.99 32.1371 2599.51 1.62612 2554.98 0.0761249C2548.93 -0.134875 2541.35 0.108126 2538.13 0.615126ZM2537.66 18.0711C2527.93 19.9381 2524.44 21.1251 2515.14 25.7281C2495.13 35.6261 2479.86 52.9041 2472.1 74.4191C2466.48 90.0051 2466.48 90.1251 2466.48 187.196V276.586H2469.44H2472.41L2472.71 184.836C2473.01 93.2781 2473.02 93.0691 2475.25 85.0861C2482.74 58.3611 2500.19 38.0391 2523.72 28.6261C2533.79 24.6011 2542.7 23.2611 2555.83 23.7981C2574.75 24.5701 2588.91 30.6841 2603.59 44.4201C2612.84 53.0701 2619.41 62.5421 2624.04 73.8951C2630.36 89.3931 2630.47 91.3641 2630.47 188.836L2630.48 276.586H2633.48H2636.48V187.217C2636.48 89.1471 2636.45 88.6421 2630.49 73.2381C2625.68 60.8091 2619.9 51.9021 2610.54 42.4961C2598.15 30.0421 2585.53 22.7061 2570.29 19.0981C2560.93 16.8841 2546.25 16.4221 2537.66 18.0711ZM2536.45 42.4691C2526.52 45.1511 2517.79 50.2781 2509.88 58.0861C2501.71 66.1511 2496.2 75.3621 2492.53 87.0731L2490.01 95.0861L2489.7 185.836L2489.39 276.586H2492.93H2496.48V186.796C2496.48 87.2601 2496.19 91.9001 2503.15 77.5861C2508.13 67.3581 2518.2 57.2691 2528.48 52.2351C2538.24 47.4481 2549.18 45.7211 2559.56 47.3271C2580.51 50.5701 2599.46 68.6911 2604.86 90.6501C2606.29 96.4441 2606.48 107.725 2606.48 186.9V276.586H2610.01H2613.55L2613.24 185.836C2612.89 84.0871 2613.39 91.1231 2605.31 74.6201C2592.8 49.0791 2563.18 35.2501 2536.45 42.4691ZM2542.51 65.1281C2529.37 68.8001 2518.66 80.0861 2515.01 94.1041C2513.69 99.1991 2513.48 112.087 2513.48 188.296V276.586H2516.48H2519.48L2519.5 189.336C2519.52 135.412 2519.9 100.447 2520.51 97.7951C2522.83 87.7561 2529.24 78.5671 2537.17 73.9221C2543.14 70.4221 2553.9 69.5711 2561.27 72.0171C2567.24 74.0021 2574.31 79.9191 2577.77 85.8391C2583.63 95.8561 2583.48 93.0251 2583.48 188.768V276.586H2586.48H2589.48V187.691C2589.48 101.959 2589.41 98.5691 2587.5 92.3941C2581.25 72.1541 2561.08 59.9341 2542.51 65.1281ZM2545.26 89.1401C2543.77 89.9511 2541.29 92.7461 2539.76 95.3501L2536.98 100.086L2536.7 188.336L2536.42 276.586H2551.47H2566.52L2566.25 188.336L2565.98 100.086L2563.69 95.7971C2559.75 88.4321 2551.83 85.5721 2545.26 89.1401Z" fill="#DFAF4B"/>
<path d="M2677.53 48L2659.53 96L2663.03 295H2846.53V86.5L2829.03 48L2798.03 20L2766.03 11.5L2723.53 16L2677.53 48Z" fill="#FFFFED"/>
<path fill-rule="evenodd" clip-rule="evenodd" d="M2742.25 0.615126C2700.75 7.16613 2668.26 36.7541 2656.76 78.4671L2654.11 88.0861L2653.82 197.336L2653.53 306.586H2755.59H2857.65L2857.35 196.836L2857.04 87.0861L2854.29 77.5861C2841.1 32.1371 2803.63 1.62612 2759.09 0.0761249C2753.04 -0.134875 2745.47 0.108126 2742.25 0.615126ZM2741.78 18.0711C2732.05 19.9381 2728.56 21.1251 2719.25 25.7281C2699.25 35.6261 2683.98 52.9041 2676.22 74.4191C2670.6 90.0051 2670.59 90.1251 2670.59 187.196V276.586H2673.56H2676.52L2676.83 184.836C2677.13 93.2781 2677.13 93.0691 2679.37 85.0861C2686.86 58.3611 2704.31 38.0391 2727.84 28.6261C2737.91 24.6011 2746.82 23.2611 2759.95 23.7981C2778.87 24.5701 2793.03 30.6841 2807.71 44.4201C2816.96 53.0701 2823.53 62.5421 2828.16 73.8951C2834.47 89.3931 2834.59 91.3641 2834.59 188.836L2834.59 276.586H2837.59H2840.59V187.217C2840.59 89.1471 2840.57 88.6421 2834.6 73.2381C2829.79 60.8091 2824.02 51.9021 2814.66 42.4961C2802.27 30.0421 2789.65 22.7061 2774.4 19.0981C2765.05 16.8841 2750.37 16.4221 2741.78 18.0711ZM2740.57 42.4691C2730.63 45.1511 2721.91 50.2781 2714 58.0861C2705.83 66.1511 2700.32 75.3621 2696.64 87.0731L2694.13 95.0861L2693.82 185.836L2693.5 276.586H2697.05H2700.59V186.796C2700.59 87.2601 2700.31 91.9001 2707.27 77.5861C2712.25 67.3581 2722.32 57.2691 2732.59 52.2351C2742.36 47.4481 2753.3 45.7211 2763.68 47.3271C2784.63 50.5701 2803.58 68.6911 2808.98 90.6501C2810.4 96.4441 2810.59 107.725 2810.59 186.9V276.586H2814.13H2817.66L2817.35 185.836C2817.01 84.0871 2817.51 91.1231 2809.43 74.6201C2796.92 49.0791 2767.3 35.2501 2740.57 42.4691ZM2746.63 65.1281C2733.49 68.8001 2722.78 80.0861 2719.13 94.1041C2717.8 99.1991 2717.59 112.087 2717.59 188.296V276.586H2720.59H2723.59L2723.62 189.336C2723.63 135.412 2724.02 100.447 2724.63 97.7951C2726.95 87.7561 2733.36 78.5671 2741.28 73.9221C2747.26 70.4221 2758.02 69.5711 2765.38 72.0171C2771.36 74.0021 2778.43 79.9191 2781.89 85.8391C2787.75 95.8561 2787.59 93.0251 2787.59 188.768V276.586H2790.59H2793.59V187.691C2793.59 101.959 2793.52 98.5691 2791.62 92.3941C2785.36 72.1541 2765.2 59.9341 2746.63 65.1281ZM2749.38 89.1401C2747.88 89.9511 2745.41 92.7461 2743.88 95.3501L2741.09 100.086L2740.82 188.336L2740.54 276.586H2755.59H2770.64L2770.36 188.336L2770.09 100.086L2767.8 95.7971C2763.87 88.4321 2755.95 85.5721 2749.38 89.1401Z" fill="#DFAF4B"/>
<path d="M2881.65 48L2863.65 96L2867.15 295H3050.65V86.5L3033.15 48L3002.15 20L2970.15 11.5L2927.65 16L2881.65 48Z" fill="#FFFFED"/>
<path fill-rule="evenodd" clip-rule="evenodd" d="M2946.37 0.615126C2904.87 7.16613 2872.37 36.7541 2860.88 78.4671L2858.23 88.0861L2857.94 197.336L2857.65 306.586H2959.71H3061.77L3061.47 196.836L3061.16 87.0861L3058.41 77.5861C3045.22 32.1371 3007.75 1.62612 2963.21 0.0761249C2957.16 -0.134875 2949.58 0.108126 2946.37 0.615126ZM2945.89 18.0711C2936.17 19.9381 2932.67 21.1251 2923.37 25.7281C2903.37 35.6261 2888.1 52.9041 2880.34 74.4191C2874.72 90.0051 2874.71 90.1251 2874.71 187.196V276.586H2877.68H2880.64L2880.94 184.836C2881.25 93.2781 2881.25 93.0691 2883.49 85.0861C2890.98 58.3611 2908.43 38.0391 2931.96 28.6261C2942.02 24.6011 2950.93 23.2611 2964.07 23.7981C2982.99 24.5701 2997.15 30.6841 3011.83 44.4201C3021.08 53.0701 3027.65 62.5421 3032.27 73.8951C3038.59 89.3931 3038.7 91.3641 3038.71 188.836L3038.71 276.586H3041.71H3044.71V187.217C3044.71 89.1471 3044.68 88.6421 3038.72 73.2381C3033.91 60.8091 3028.13 51.9021 3018.78 42.4961C3006.39 30.0421 2993.77 22.7061 2978.52 19.0981C2969.17 16.8841 2954.49 16.4221 2945.89 18.0711ZM2944.68 42.4691C2934.75 45.1511 2926.03 50.2781 2918.12 58.0861C2909.95 66.1511 2904.43 75.3621 2900.76 87.0731L2898.25 95.0861L2897.94 185.836L2897.62 276.586H2901.17H2904.71V186.796C2904.71 87.2601 2904.43 91.9001 2911.39 77.5861C2916.36 67.3581 2926.44 57.2691 2936.71 52.2351C2946.48 47.4481 2957.42 45.7211 2967.8 47.3271C2988.75 50.5701 3007.7 68.6911 3013.1 90.6501C3014.52 96.4441 3014.71 107.725 3014.71 186.9V276.586H3018.25H3021.78L3021.47 185.836C3021.13 84.0871 3021.63 91.1231 3013.55 74.6201C3001.04 49.0791 2971.42 35.2501 2944.68 42.4691ZM2950.74 65.1281C2937.61 68.8001 2926.9 80.0861 2923.25 94.1041C2921.92 99.1991 2921.71 112.087 2921.71 188.296V276.586H2924.71H2927.71L2927.74 189.336C2927.75 135.412 2928.14 100.447 2928.75 97.7951C2931.07 87.7561 2937.48 78.5671 2945.4 73.9221C2951.37 70.4221 2962.14 69.5711 2969.5 72.0171C2975.48 74.0021 2982.55 79.9191 2986.01 85.8391C2991.87 95.8561 2991.71 93.0251 2991.71 188.768V276.586H2994.71H2997.71V187.691C2997.71 101.959 2997.64 98.5691 2995.73 92.3941C2989.48 72.1541 2969.32 59.9341 2950.74 65.1281ZM2953.5 89.1401C2952 89.9511 2949.53 92.7461 2948 95.3501L2945.21 100.086L2944.94 188.336L2944.66 276.586H2959.71H2974.75L2974.48 188.336L2974.21 100.086L2971.92 95.7971C2967.99 88.4321 2960.07 85.5721 2953.5 89.1401Z" fill="#DFAF4B"/>
</g>
<defs>
<clipPath id="clip0_284_468">
<rect width="3061.77" height="191" fill="white"/>
</clipPath>
</defs>
</svg>
